<svg xmlns="http://www.w3.org/2000/svg" width="56" height="55" viewBox="0 0 56 55">
  <g fill="none">
    <rect width="55" height="55" x=".833" fill="#141414" rx="2"/>
    <g transform="translate(10.25 14.255)">
      <path fill="#B0B0B0" d="M12.6288083,26.0153453 C11.6468933,26.0153453 11.8137451,25.6445887 11.4750909,24.7096528 L8.58758969,15.2065755 L30.8142924,2.02060934"/>
      <path fill="#D8D9D9" d="M12.6288083,26.0153453 C13.3865368,26.0153453 13.7213265,25.6688107 14.1442653,25.2576168 L18.185484,21.3280368 L13.1445689,18.2882825"/>
      <path fill="#FFF" d="M13.1440637,18.2890402 L25.3586472,27.3133342 C26.7524888,28.0824034 27.7584744,27.684217 28.1056656,26.0192602 L33.0776274,2.58953716 C33.5866694,0.548671208 32.2996676,-0.37696993 30.9662422,0.228404628 L1.77096305,11.485977 C-0.221888163,12.2853048 -0.210269659,13.3971198 1.40770801,13.8925227 L8.89987486,16.2309487 L26.245038,5.28808618 C27.0638647,4.79154669 27.8153799,5.05849698 27.1985635,5.60592804"/>
    </g>
  </g>
</svg>
