<svg width="1000" height="1000" viewBox="0 0 1000 1000" fill="none" xmlns="http://www.w3.org/2000/svg">
<path d="M154.42 104.84L196.367 107.527L193.233 124.32L154.42 104.84Z" fill="#F94BA7"/>
<path d="M392.3 381.253L419.653 435.927L454 424.093L392.3 381.253Z" fill="#C072CE"/>
<path d="M419.653 408.727L416.347 369.547L487.42 397.273L419.653 408.727Z" fill="#F94BA7"/>
<path d="M441.653 420.18L455.313 428.82L505.92 393.547L441.653 420.18Z" fill="#DA5977"/>
<path d="M281.174 234.973L262.74 192.14H302.714L281.174 234.973Z" fill="#C072CE"/>
<path d="M283.247 166.867L271.674 186.553L313.32 199.727L283.247 166.867Z" fill="#F94BA7"/>
<path d="M228.707 157.993L243.034 132.547L254.84 188.52L228.707 157.993Z" fill="#DA5977"/>
<path d="M492.687 502.227L541.64 472.647L557.673 511.713L492.687 502.227Z" fill="#9E4DB2"/>
<path d="M689.994 451.42L644.9 502.28L540.667 476.853L689.994 451.42Z" fill="#C072CE"/>
<path d="M653.014 515.913L679.76 546.987L790.474 488.667L653.014 512.607" fill="#9E4DB2"/>
<path d="M689.993 546.773L764.787 512.16L797.193 550.3L689.993 546.773Z" fill="#9E4DB2"/>
<path d="M544.1 487.447L605 519.393L656.946 498.053L544.1 487.447Z" fill="#9E4DB2"/>
<path d="M782.84 553.753L800.6 542.24L803.033 565.967L782.84 553.753Z" fill="#DA5977"/>
<path d="M797.193 555.8L804.187 564.087L807.447 555.8H797.193Z" fill="#C072CE"/>
<path d="M758.246 323.5L768.773 362.533L812.526 327.953L758.246 323.5Z" fill="#9E4DB2"/>
<path d="M773.467 372.32L764.307 319.88L790.473 320.733L773.467 372.32Z" fill="#C072CE"/>
<path d="M798.406 313.92L813.14 324.52L808.806 297.047L798.406 313.92Z" fill="#9E4DB2"/>
<path d="M801.046 296.787L797.133 332.9L812.526 291.413L801.046 296.787Z" fill="#C072CE"/>
<path d="M689.6 336.853L670.374 302.413L659.86 319.353L689.6 336.853Z" fill="#DA5977"/>
<path d="M780.473 265.207L752.906 243.253L770.82 268.933L780.473 265.207Z" fill="#C072CE"/>
<path d="M694.426 237.587L693.56 260.367L719.38 234.333L694.426 237.587Z" fill="#F94BA7"/>
<path d="M481.16 425.213L532.394 374.26L536.434 416.28L481.16 425.213Z" fill="#C072CE"/>
<path d="M758.247 433.873L790.473 484.193L682.12 491.787L758.247 433.873Z" fill="#C072CE"/>
<path d="M626.354 521.04L725.513 461.853L665.8 540.827L626.354 521.04Z" fill="#DA5977"/>
<path d="M607.16 420.16L708.027 374.913L683.74 435.08L607.16 420.16Z" fill="#C072CE"/>
<path d="M726.306 361.353L754.153 376.3L693.56 423.553L726.306 361.353Z" fill="#C072CE"/>
<path d="M634.48 405.513L644.9 415.92L664.334 389.567L634.48 405.513Z" fill="#F94BA7"/>
<path d="M673.253 387.067L677.446 405.233L685.806 381.253L673.253 387.067Z" fill="#F94BA7"/>
<path d="M700.779 391.92L688.246 379.247L703.513 374.26L700.779 391.92Z" fill="#F94BA7"/>
<path d="M451.753 485.367L469.173 514.253L595.68 411.353L451.753 485.367Z" fill="#F94BA7"/>
<path d="M432.246 499.987V513.727L394.106 535.153L432.246 499.987Z" fill="#9E4DB2"/>
<path d="M590.813 268.487L567.3 291.96L587.22 309.913L590.813 268.487Z" fill="#DA5977"/>
<path d="M554.167 320.733L565.007 301.4L569.36 332.42L554.167 320.733Z" fill="#DA5977"/>
<path d="M544.1 341.427L555.78 324.22L557.166 353.593L544.1 341.427Z" fill="#C072CE"/>
<path d="M538.627 348.387L538.927 372.32L545.487 353.593L538.627 348.387Z" fill="#C072CE"/>
<path d="M288.786 302.367C288.786 303.983 288.307 305.563 287.409 306.908C286.511 308.252 285.234 309.299 283.741 309.918C282.247 310.536 280.604 310.698 279.018 310.383C277.433 310.068 275.976 309.289 274.833 308.146C273.69 307.003 272.912 305.547 272.597 303.961C272.281 302.376 272.443 300.732 273.062 299.239C273.68 297.745 274.728 296.469 276.072 295.571C277.416 294.673 278.996 294.193 280.613 294.193C282.781 294.193 284.859 295.054 286.392 296.587C287.925 298.12 288.786 300.199 288.786 302.367Z" fill="#F94BA7"/>
<path d="M127.64 465.333C127.64 466.95 127.16 468.53 126.262 469.874C125.364 471.218 124.088 472.266 122.594 472.885C121.101 473.503 119.457 473.665 117.872 473.35C116.286 473.034 114.83 472.256 113.687 471.113C112.544 469.97 111.765 468.513 111.45 466.928C111.135 465.342 111.297 463.699 111.915 462.206C112.534 460.712 113.581 459.436 114.925 458.537C116.27 457.639 117.85 457.16 119.466 457.16C120.54 457.159 121.603 457.37 122.595 457.78C123.587 458.191 124.489 458.793 125.248 459.552C126.007 460.311 126.609 461.212 127.019 462.205C127.43 463.197 127.641 464.26 127.64 465.333Z" fill="#C072CE"/>
<path d="M204.613 586.827C204.616 588.444 204.139 590.025 203.242 591.371C202.346 592.717 201.07 593.767 199.577 594.387C198.084 595.008 196.44 595.172 194.854 594.858C193.267 594.544 191.81 593.767 190.665 592.624C189.521 591.482 188.741 590.025 188.425 588.439C188.108 586.854 188.269 585.21 188.887 583.715C189.506 582.221 190.553 580.944 191.898 580.045C193.242 579.146 194.823 578.667 196.44 578.667C197.512 578.666 198.575 578.876 199.566 579.286C200.557 579.695 201.458 580.296 202.217 581.054C202.976 581.812 203.578 582.711 203.989 583.702C204.4 584.692 204.612 585.754 204.613 586.827Z" fill="#F94BA7"/>
<path d="M515.474 555.473C515.48 557.093 515.006 558.677 514.11 560.027C513.214 561.376 511.938 562.429 510.443 563.051C508.949 563.674 507.302 563.839 505.714 563.524C504.125 563.21 502.666 562.431 501.521 561.286C500.376 560.141 499.597 558.682 499.282 557.093C498.968 555.504 499.133 553.858 499.756 552.363C500.378 550.869 501.431 549.592 502.78 548.697C504.129 547.801 505.714 547.327 507.334 547.333C509.49 547.342 511.555 548.203 513.08 549.727C514.604 551.252 515.465 553.317 515.474 555.473Z" fill="#C072CE"/>
<path d="M888.707 100.467C888.707 102.083 888.228 103.663 887.33 105.008C886.431 106.352 885.155 107.399 883.662 108.018C882.168 108.636 880.525 108.798 878.939 108.483C877.354 108.168 875.897 107.389 874.754 106.246C873.611 105.103 872.833 103.647 872.517 102.061C872.202 100.476 872.364 98.8323 872.983 97.3389C873.601 95.8454 874.649 94.5689 875.993 93.6708C877.337 92.7727 878.917 92.2933 880.534 92.2933C882.701 92.2933 884.78 93.1544 886.313 94.6872C887.846 96.22 888.707 98.299 888.707 100.467Z" fill="#C072CE"/>
<path d="M742.327 653.54C742.327 656.535 741.439 659.462 739.775 661.952C738.111 664.442 735.746 666.382 732.979 667.528C730.212 668.674 727.168 668.973 724.231 668.389C721.294 667.804 718.596 666.361 716.479 664.243C714.362 662.125 712.92 659.427 712.337 656.49C711.754 653.552 712.054 650.508 713.201 647.742C714.348 644.975 716.29 642.611 718.78 640.948C721.271 639.286 724.199 638.399 727.194 638.4C729.181 638.4 731.15 638.792 732.986 639.553C734.823 640.314 736.491 641.429 737.897 642.835C739.302 644.241 740.417 645.91 741.177 647.747C741.937 649.584 742.328 651.552 742.327 653.54Z" fill="#F94BA7"/>
<path d="M146.687 93.8467L154.393 91.44L238.167 117.44L291.133 153.547L357.093 177.627L440.387 212.293L533.313 242.14L588.68 258.513L619.013 249.847L648.387 239.733L675.347 245.513L709.053 227.7L750.94 239.733L787.053 269.587L778.386 269.107L772.607 270.547L736.013 246.953L712.907 241.18L695.573 260.44L724.94 281.62L754.313 319.66L794.753 316.773L800.053 290.773L812.087 291.253L816.42 329.767L783.2 356.733L758.647 399.587L765.386 432.807L796.2 489.14L805.827 531.993L808.24 562.327L801.493 566.66L779.347 553.173L682.573 548.84L606.013 522.84L487.573 505.507L458.2 507.92L434.613 513.213L421.613 503.1L429.8 483.36L426.427 466.993L410.053 432.807L381.167 375.993L331.573 313.88L285.353 252.733L254.06 194.473L214.573 147.773L150.06 106.367L146.687 93.8467Z" stroke="#41474E" stroke-width="2.88" stroke-linecap="round" stroke-linejoin="round"/>
<path d="M695.893 260.433L674.387 295.26L695.087 332.66L596.387 419.807L725.42 361.067L764.42 370.213L754.313 319.66L725.58 281.62L695.893 260.433Z" stroke="#41474E" stroke-width="2.88" stroke-linecap="round" stroke-linejoin="round"/>
<path d="M596.387 419.807L528.98 460.253" stroke="#41474E" stroke-width="2.88" stroke-linecap="round" stroke-linejoin="round"/>
<path d="M528.98 460.253L493.354 474.693" stroke="#41474E" stroke-width="2.88" stroke-linecap="round" stroke-linejoin="round"/>
<path d="M493.353 474.693L442.793 499.253" stroke="#41474E" stroke-width="2.88" stroke-linecap="round" stroke-linejoin="round"/>
<path d="M442.793 499.253L376.833 551.733" stroke="#41474E" stroke-width="2.88" stroke-linecap="round" stroke-linejoin="round"/>
<path d="M421.613 503.1L376.833 551.733" stroke="#41474E" stroke-width="2.88" stroke-linecap="round" stroke-linejoin="round"/>
<path d="M376.833 551.733L434.613 513.213" stroke="#41474E" stroke-width="2.88" stroke-linecap="round" stroke-linejoin="round"/>
<path d="M764.42 370.213L758.646 399.587" stroke="#41474E" stroke-width="2.88" stroke-linecap="round" stroke-linejoin="round"/>
<path d="M764.42 370.213L783.2 356.733" stroke="#41474E" stroke-width="2.88" stroke-linecap="round" stroke-linejoin="round"/>
<path d="M674.386 295.267L588.687 258.513" stroke="#41474E" stroke-width="2.88" stroke-linecap="round" stroke-linejoin="round"/>
<path d="M695.573 260.44L590.127 258.513" stroke="#41474E" stroke-width="2.88" stroke-linecap="round" stroke-linejoin="round"/>
<path d="M695.094 332.66L725.74 360.267" stroke="#41474E" stroke-width="2.88" stroke-linecap="round" stroke-linejoin="round"/>
<path d="M455.793 507.433L508.28 480.473" stroke="#41474E" stroke-width="2.88" stroke-linecap="round" stroke-linejoin="round"/>
<path d="M508.28 480.473L546.314 466.507" stroke="#41474E" stroke-width="2.88" stroke-linecap="round" stroke-linejoin="round"/>
<path d="M519.353 426.547L470.72 455.433" stroke="#41474E" stroke-width="2.88" stroke-linecap="round" stroke-linejoin="round"/>
<path d="M470.72 455.433L426.427 466.993" stroke="#41474E" stroke-width="2.88" stroke-linecap="round" stroke-linejoin="round"/>
<path d="M765.387 432.807L580.98 465.067L685.621 478.067L739.547 522.36L772.927 537.127L790.907 544.187L808.24 562.327" stroke="#41474E" stroke-width="2.88" stroke-linecap="round" stroke-linejoin="round"/>
<path d="M146.687 93.8467L222.76 133.967L270.267 174.413L311.993 220.633L378.76 270.707L450.66 314.36L516.947 389.473L533.313 242.14" stroke="#41474E" stroke-width="2.88" stroke-linecap="round" stroke-linejoin="round"/>
<path d="M596.066 420.447L612.92 436.66L629.926 404.72L644.213 422.533L665.08 388.507L677.593 407.767L685.94 379.2L701.026 397.5L707.766 369.253L764.42 370.213" stroke="#41474E" stroke-width="2.88" stroke-linecap="round" stroke-linejoin="round"/>
<path d="M534.52 359.14L540.053 372.86L544.146 341.087L550.886 356.973L555.46 321.587L565.093 338.193L568.78 296.387L588.68 317.573V258.513" stroke="#41474E" stroke-width="2.88" stroke-linecap="round" stroke-linejoin="round"/>
<path d="M539.573 374.067L596.387 419.807" stroke="#41474E" stroke-width="2.88" stroke-linecap="round" stroke-linejoin="round"/>
<path d="M550.887 356.973L612.76 404.88" stroke="#41474E" stroke-width="2.88" stroke-linecap="round" stroke-linejoin="round"/>
<path d="M565.094 338.193L630.574 389.953" stroke="#41474E" stroke-width="2.88" stroke-linecap="round" stroke-linejoin="round"/>
<path d="M588.687 317.573L652.24 370.693" stroke="#41474E" stroke-width="2.88" stroke-linecap="round" stroke-linejoin="round"/>
<path d="M708.5 370.08L758.647 399.587" stroke="#41474E" stroke-width="2.88" stroke-linecap="round" stroke-linejoin="round"/>
<path d="M588.687 258.513L683.053 343.893" stroke="#41474E" stroke-width="2.88" stroke-linecap="round" stroke-linejoin="round"/>
<path d="M539.573 374.067L519.354 426.547" stroke="#41474E" stroke-width="2.88" stroke-linecap="round" stroke-linejoin="round"/>
<path d="M642.214 444.067L546.313 466.507" stroke="#41474E" stroke-width="2.88" stroke-linecap="round" stroke-linejoin="round"/>
<path d="M673.907 245.513L665.24 259.953" stroke="#41474E" stroke-width="1.63" stroke-miterlimit="10"/>
<path d="M665.24 259.953L648.387 239.733" stroke="#41474E" stroke-width="1.63" stroke-miterlimit="10"/>
<path d="M709.054 227.7L712.907 241.18" stroke="#41474E" stroke-width="1.63" stroke-miterlimit="10"/>
<path d="M711.94 241.5L750.14 239.253" stroke="#41474E" stroke-width="1.63" stroke-miterlimit="10"/>
<path d="M750.14 239.253L772.606 269.427" stroke="#41474E" stroke-width="1.63" stroke-miterlimit="10"/>
<path d="M794.753 316.773L816.42 329.773" stroke="#41474E" stroke-width="1.63" stroke-miterlimit="10"/>
<path d="M794.753 316.773L764.26 369.253" stroke="#41474E" stroke-width="1.63" stroke-miterlimit="10"/>
<path d="M590.126 258.513L516.946 389.473" stroke="#41474E" stroke-width="1.63" stroke-miterlimit="10"/>
<path d="M516.947 389.473L452.427 434.733" stroke="#41474E" stroke-width="1.63" stroke-miterlimit="10"/>
<path d="M452.427 434.733L416.313 446.767" stroke="#41474E" stroke-width="1.63" stroke-miterlimit="10"/>
<path d="M489.98 505.027L514.054 483.36" stroke="#41474E" stroke-width="1.63" stroke-miterlimit="10"/>
<path d="M514.054 483.36L614.687 456.4" stroke="#41474E" stroke-width="1.63" stroke-miterlimit="10"/>
<path d="M614.687 456.4L758.646 399.587" stroke="#41474E" stroke-width="1.63" stroke-miterlimit="10"/>
<path d="M516.946 389.473L520.793 452.547" stroke="#41474E" stroke-width="1.63" stroke-miterlimit="10"/>
<path d="M520.793 452.547L546.313 466.507" stroke="#41474E" stroke-width="1.63" stroke-miterlimit="10"/>
<path d="M546.313 466.507L580.98 465.067" stroke="#41474E" stroke-width="1.63" stroke-miterlimit="10"/>
<path d="M520.793 452.547L481.793 467.953" stroke="#41474E" stroke-width="1.63" stroke-miterlimit="10"/>
<path d="M481.793 467.953L429.793 483.36" stroke="#41474E" stroke-width="1.63" stroke-miterlimit="10"/>
<path d="M481.793 467.953L508.28 480.473" stroke="#41474E" stroke-width="1.63" stroke-miterlimit="10"/>
<path d="M519.354 426.547L674.387 295.267" stroke="#41474E" stroke-width="1.63" stroke-miterlimit="10"/>
<path d="M544.867 466.507L764.421 370.213" stroke="#41474E" stroke-width="1.63" stroke-miterlimit="10"/>
<path d="M508.28 480.473L514.054 483.36" stroke="#41474E" stroke-width="1.63" stroke-miterlimit="10"/>
<path d="M481.793 467.953L452.427 434.733" stroke="#41474E" stroke-width="1.63" stroke-miterlimit="10"/>
<path d="M238.167 117.44L214.573 147.773" stroke="#41474E" stroke-width="1.63" stroke-miterlimit="10"/>
<path d="M288.881 153.233L254.061 194.473" stroke="#41474E" stroke-width="1.63" stroke-miterlimit="10"/>
<path d="M285.354 252.733L352.44 175.053" stroke="#41474E" stroke-width="1.63" stroke-miterlimit="10"/>
<path d="M437.18 211.007L333.82 316.933" stroke="#41474E" stroke-width="1.63" stroke-miterlimit="10"/>
<path d="M154.394 91.44L214.574 147.773" stroke="#41474E" stroke-width="1.63" stroke-miterlimit="10"/>
<path d="M214.573 147.773L288.88 153.233" stroke="#41474E" stroke-width="1.63" stroke-miterlimit="10"/>
<path d="M288.88 153.233L285.354 252.733" stroke="#41474E" stroke-width="1.63" stroke-miterlimit="10"/>
<path d="M285.354 252.733L437.18 211.007" stroke="#41474E" stroke-width="1.63" stroke-miterlimit="10"/>
<path d="M533.313 242.14L381.967 377.273" stroke="#41474E" stroke-width="1.63" stroke-miterlimit="10"/>
<path d="M437.18 211.007L381.967 377.273" stroke="#41474E" stroke-width="1.63" stroke-miterlimit="10"/>
<path d="M381.167 375.993L516.947 389.473" stroke="#41474E" stroke-width="1.63" stroke-miterlimit="10"/>
<path d="M779.347 553.173L805.827 531.993" stroke="#41474E" stroke-width="1.63" stroke-miterlimit="10"/>
<path d="M802.46 519.793L751.74 551.887" stroke="#41474E" stroke-width="1.63" stroke-miterlimit="10"/>
<path d="M796.2 489.14L721.573 533.273" stroke="#41474E" stroke-width="1.63" stroke-miterlimit="10"/>
<path d="M721.573 533.273L682.573 548.84" stroke="#41474E" stroke-width="1.63" stroke-miterlimit="10"/>
<path d="M765.387 432.807L629.767 513.373" stroke="#41474E" stroke-width="1.63" stroke-miterlimit="10"/>
<path d="M629.766 513.373L606.02 522.84" stroke="#41474E" stroke-width="1.63" stroke-miterlimit="10"/>
<path d="M580.98 465.067L606.021 522.84" stroke="#41474E" stroke-width="1.63" stroke-miterlimit="10"/>
<path d="M629.767 513.373L682.573 548.84" stroke="#41474E" stroke-width="1.63" stroke-miterlimit="10"/>
<path d="M629.767 513.373L796.2 489.14" stroke="#41474E" stroke-width="1.63" stroke-miterlimit="10"/>
<path d="M796.2 489.14L751.74 551.887" stroke="#41474E" stroke-width="1.63" stroke-miterlimit="10"/>
<path d="M751.74 551.887L805.827 531.993" stroke="#41474E" stroke-width="1.63" stroke-miterlimit="10"/>
<path d="M805.826 531.993L800.533 565.373" stroke="#41474E" stroke-width="1.63" stroke-miterlimit="10"/>
<path d="M612.92 436.66L644.14 445.033" stroke="#41474E" stroke-width="1.63" stroke-miterlimit="10"/>
<path d="M644.934 423.54L673.194 432.833" stroke="#41474E" stroke-width="1.63" stroke-miterlimit="10"/>
<path d="M677.434 408.373L705.614 420.48" stroke="#41474E" stroke-width="1.63" stroke-miterlimit="10"/>
<path d="M701.146 398.26L732.893 409.727" stroke="#41474E" stroke-width="1.63" stroke-miterlimit="10"/>
<path d="M754.313 319.66L712.58 349.027" stroke="#41474E" stroke-width="1.63" stroke-miterlimit="10"/>
<path d="M724.941 281.62L684.98 315.007" stroke="#41474E" stroke-width="1.63" stroke-miterlimit="10"/>
<path d="M451.066 315.513L452.426 434.733" stroke="#41474E" stroke-width="1.63" stroke-miterlimit="10"/>
<path d="M452.427 434.733L381.167 375.993" stroke="#41474E" stroke-width="1.63" stroke-miterlimit="10"/>
<path d="M514.054 483.36L606.02 522.84" stroke="#41474E" stroke-width="1.63" stroke-miterlimit="10"/>
<path d="M686.514 479.22L514.054 483.36" stroke="#41474E" stroke-width="1.63" stroke-miterlimit="10"/>
<path d="M334.554 315.513L450.66 314.36" stroke="#41474E" stroke-width="1.63" stroke-miterlimit="10"/>
<path d="M311.993 220.633L333.82 316.933" stroke="#41474E" stroke-width="1.63" stroke-miterlimit="10"/>
<path d="M254.061 194.473L311.994 220.633" stroke="#41474E" stroke-width="1.63" stroke-miterlimit="10"/>
<path d="M452.513 433.48L429.887 484.513" stroke="#41474E" stroke-width="1.63" stroke-miterlimit="10"/>
<path d="M459.733 507.14L514.053 483.36" stroke="#41474E" stroke-width="1.63" stroke-miterlimit="10"/>
<path d="M429.793 483.36L442.793 499.253" stroke="#41474E" stroke-width="1.63" stroke-miterlimit="10"/>
<path d="M442.793 499.253L456.846 508.107" stroke="#41474E" stroke-width="1.63" stroke-miterlimit="10"/>
<path d="M588.293 259.667L451.066 315.513" stroke="#41474E" stroke-width="1.63" stroke-miterlimit="10"/>
<path d="M378.76 270.707L533.313 242.14" stroke="#41474E" stroke-width="1.63" stroke-miterlimit="10"/>
<path d="M452.427 434.733L519.353 426.547" stroke="#41474E" stroke-width="1.63" stroke-miterlimit="10"/>
<path d="M285.354 252.733L378.76 270.707" stroke="#41474E" stroke-width="1.63" stroke-miterlimit="10"/>
<path d="M378.76 270.707L381.966 377.273" stroke="#41474E" stroke-width="1.63" stroke-miterlimit="10"/>
<path d="M546.313 466.507L596.387 419.807" stroke="#41474E" stroke-width="1.63" stroke-miterlimit="10"/>
<path d="M596.387 419.807L519.354 426.547" stroke="#41474E" stroke-width="1.63" stroke-miterlimit="10"/>
<path d="M416.313 446.767L481.793 467.953" stroke="#41474E" stroke-width="1.63" stroke-miterlimit="10"/>
<path d="M507.401 480.5L489.98 505.027" stroke="#41474E" stroke-width="1.63" stroke-miterlimit="10"/>
<path d="M471.453 455.467L519.92 452.573" stroke="#41474E" stroke-width="1.63" stroke-miterlimit="10"/>
<path d="M546.314 466.507L514.787 483.387" stroke="#41474E" stroke-width="1.63" stroke-miterlimit="10"/>
<path d="M531.153 458.353L560.687 391.587" stroke="#41474E" stroke-width="1.63" stroke-miterlimit="10"/>
<path d="M531.8 458.673L612.92 436.66" stroke="#41474E" stroke-width="1.63" stroke-miterlimit="10"/>
<path d="M686.966 550.313C686.581 551.107 685.969 551.768 685.207 552.213C684.446 552.659 683.569 552.869 682.689 552.816C681.808 552.763 680.963 552.45 680.26 551.917C679.557 551.384 679.028 550.655 678.74 549.821C678.452 548.987 678.417 548.086 678.641 547.233C678.864 546.38 679.336 545.612 679.996 545.027C680.656 544.441 681.475 544.065 682.349 543.945C683.223 543.825 684.113 543.967 684.906 544.353C685.97 544.871 686.784 545.789 687.17 546.907C687.557 548.024 687.483 549.25 686.966 550.313Z" fill="#41474E"/>
<path d="M799.153 492.053C798.768 492.847 798.157 493.508 797.395 493.954C796.634 494.4 795.758 494.611 794.878 494.559C793.997 494.507 793.152 494.195 792.449 493.662C791.745 493.13 791.216 492.401 790.927 491.568C790.638 490.734 790.602 489.834 790.825 488.98C791.048 488.127 791.519 487.359 792.178 486.773C792.837 486.187 793.656 485.809 794.529 485.689C795.403 485.568 796.293 485.708 797.087 486.093C797.614 486.349 798.085 486.706 798.474 487.144C798.863 487.582 799.163 488.092 799.354 488.645C799.546 489.199 799.627 489.785 799.593 490.369C799.558 490.954 799.409 491.526 799.153 492.053Z" fill="#41474E"/>
<path d="M767.86 434.28C767.475 435.074 766.864 435.735 766.103 436.181C765.342 436.627 764.465 436.837 763.585 436.785C762.704 436.733 761.859 436.421 761.156 435.889C760.452 435.357 759.923 434.628 759.634 433.794C759.345 432.961 759.309 432.061 759.532 431.207C759.755 430.354 760.226 429.585 760.885 428.999C761.544 428.413 762.362 428.036 763.236 427.915C764.11 427.794 765 427.935 765.794 428.32C766.856 428.839 767.669 429.757 768.056 430.874C768.444 431.99 768.373 433.215 767.86 434.28Z" fill="#41474E"/>
<path d="M610.413 525.273C610.028 526.067 609.416 526.729 608.655 527.174C607.894 527.62 607.018 527.831 606.138 527.779C605.257 527.727 604.412 527.415 603.708 526.882C603.005 526.35 602.476 525.621 602.187 524.788C601.898 523.954 601.862 523.054 602.085 522.2C602.308 521.347 602.778 520.579 603.438 519.993C604.097 519.407 604.915 519.029 605.789 518.909C606.663 518.788 607.553 518.928 608.346 519.313C608.874 519.569 609.345 519.926 609.734 520.364C610.123 520.802 610.422 521.312 610.614 521.865C610.806 522.419 610.887 523.005 610.853 523.589C610.818 524.174 610.669 524.746 610.413 525.273Z" fill="#41474E"/>
<path d="M763.04 402C762.655 402.794 762.043 403.455 761.282 403.901C760.521 404.347 759.645 404.557 758.764 404.505C757.884 404.453 757.039 404.141 756.335 403.609C755.632 403.077 755.103 402.348 754.814 401.514C754.525 400.681 754.489 399.781 754.712 398.927C754.935 398.074 755.405 397.305 756.065 396.719C756.724 396.133 757.542 395.756 758.416 395.635C759.29 395.514 760.18 395.655 760.973 396.04C761.5 396.296 761.972 396.653 762.361 397.09C762.75 397.528 763.049 398.038 763.241 398.592C763.433 399.145 763.514 399.731 763.48 400.316C763.445 400.901 763.296 401.473 763.04 402Z" fill="#41474E"/>
<path d="M494.38 507.46C493.995 508.254 493.383 508.915 492.622 509.361C491.861 509.807 490.985 510.017 490.104 509.965C489.224 509.913 488.378 509.601 487.675 509.069C486.972 508.537 486.442 507.808 486.153 506.974C485.864 506.141 485.829 505.241 486.052 504.387C486.274 503.534 486.745 502.765 487.404 502.179C488.064 501.593 488.882 501.216 489.756 501.095C490.63 500.974 491.519 501.115 492.313 501.5C493.376 502.018 494.191 502.936 494.578 504.053C494.966 505.17 494.894 506.395 494.38 507.46Z" fill="#41474E"/>
<path d="M420.713 449.207C420.327 449.999 419.715 450.66 418.954 451.105C418.193 451.55 417.317 451.759 416.437 451.706C415.556 451.654 414.712 451.341 414.009 450.809C413.306 450.276 412.777 449.547 412.489 448.714C412.2 447.881 412.165 446.981 412.388 446.128C412.61 445.275 413.081 444.507 413.74 443.921C414.399 443.335 415.217 442.958 416.09 442.837C416.963 442.715 417.853 442.856 418.646 443.24C419.711 443.757 420.527 444.677 420.915 445.796C421.302 446.914 421.23 448.141 420.713 449.207Z" fill="#41474E"/>
<path d="M767.373 372.667C766.981 373.454 766.364 374.109 765.6 374.546C764.836 374.984 763.96 375.186 763.082 375.127C762.203 375.068 761.362 374.75 760.664 374.213C759.966 373.677 759.443 372.946 759.159 372.113C758.876 371.279 758.846 370.381 759.072 369.53C759.298 368.679 759.771 367.915 760.432 367.332C761.092 366.75 761.909 366.376 762.782 366.258C763.654 366.139 764.542 366.281 765.333 366.667C766.397 367.184 767.211 368.103 767.597 369.22C767.984 370.338 767.91 371.563 767.393 372.627" fill="#41474E"/>
<path d="M591.633 260.947C591.248 261.74 590.636 262.401 589.874 262.847C589.113 263.292 588.236 263.502 587.356 263.449C586.475 263.396 585.63 263.084 584.927 262.551C584.224 262.017 583.695 261.288 583.407 260.454C583.119 259.62 583.084 258.72 583.308 257.866C583.531 257.013 584.003 256.245 584.663 255.66C585.323 255.075 586.142 254.698 587.016 254.578C587.89 254.459 588.78 254.601 589.573 254.987C590.637 255.504 591.451 256.423 591.837 257.54C592.224 258.658 592.15 259.883 591.633 260.947Z" fill="#41474E"/>
<path d="M669.634 261.427C669.248 262.22 668.636 262.881 667.874 263.327C667.113 263.772 666.236 263.982 665.356 263.929C664.475 263.876 663.63 263.564 662.927 263.031C662.224 262.497 661.695 261.768 661.407 260.934C661.119 260.1 661.084 259.2 661.308 258.346C661.531 257.493 662.003 256.725 662.663 256.14C663.323 255.555 664.142 255.178 665.016 255.058C665.89 254.939 666.78 255.081 667.573 255.467C668.637 255.984 669.451 256.903 669.837 258.02C670.224 259.138 670.15 260.363 669.634 261.427Z" fill="#41474E"/>
<path d="M729.82 362.54C729.434 363.333 728.821 363.993 728.06 364.438C727.299 364.883 726.423 365.092 725.543 365.04C724.663 364.987 723.818 364.675 723.115 364.142C722.413 363.609 721.884 362.881 721.595 362.047C721.307 361.214 721.272 360.314 721.494 359.461C721.717 358.608 722.187 357.84 722.846 357.254C723.505 356.669 724.323 356.291 725.196 356.17C726.07 356.049 726.959 356.189 727.753 356.573C728.818 357.091 729.634 358.01 730.021 359.129C730.409 360.248 730.336 361.475 729.82 362.54Z" fill="#41474E"/>
<path d="M699.487 334.133C699.101 334.926 698.488 335.587 697.727 336.032C696.966 336.476 696.09 336.686 695.21 336.633C694.33 336.58 693.485 336.268 692.782 335.735C692.08 335.203 691.551 334.474 691.262 333.641C690.974 332.808 690.939 331.908 691.161 331.055C691.384 330.201 691.854 329.434 692.513 328.848C693.172 328.262 693.99 327.885 694.863 327.763C695.737 327.642 696.626 327.783 697.42 328.167C698.485 328.684 699.301 329.603 699.688 330.722C700.076 331.841 700.003 333.068 699.487 334.133Z" fill="#41474E"/>
<path d="M381.233 553.2C380.848 553.994 380.237 554.655 379.476 555.101C378.715 555.547 377.838 555.757 376.958 555.705C376.077 555.653 375.232 555.341 374.529 554.809C373.825 554.277 373.296 553.548 373.007 552.714C372.718 551.881 372.683 550.981 372.905 550.127C373.128 549.274 373.599 548.505 374.258 547.919C374.917 547.333 375.736 546.956 376.609 546.835C377.483 546.714 378.373 546.855 379.167 547.24C380.23 547.758 381.045 548.676 381.432 549.793C381.819 550.91 381.748 552.135 381.233 553.2Z" fill="#41474E"/>
<path d="M426 504.573C425.614 505.367 425.002 506.028 424.24 506.474C423.479 506.919 422.602 507.129 421.722 507.076C420.841 507.023 419.996 506.71 419.293 506.177C418.59 505.644 418.061 504.915 417.773 504.081C417.485 503.247 417.45 502.346 417.674 501.493C417.898 500.64 418.369 499.872 419.029 499.287C419.69 498.701 420.508 498.325 421.382 498.205C422.256 498.085 423.146 498.227 423.94 498.613C425.002 499.132 425.815 500.051 426.201 501.168C426.587 502.285 426.515 503.509 426 504.573Z" fill="#41474E"/>
<path d="M439.007 516.607C438.622 517.4 438.01 518.062 437.249 518.508C436.488 518.954 435.612 519.164 434.731 519.112C433.851 519.06 433.005 518.748 432.302 518.216C431.599 517.683 431.069 516.954 430.78 516.121C430.491 515.288 430.456 514.387 430.679 513.534C430.901 512.68 431.372 511.912 432.031 511.326C432.691 510.74 433.509 510.363 434.383 510.242C435.256 510.121 436.146 510.262 436.94 510.647C437.467 510.902 437.939 511.259 438.328 511.697C438.717 512.135 439.016 512.645 439.208 513.199C439.4 513.752 439.481 514.338 439.446 514.923C439.412 515.507 439.262 516.08 439.007 516.607Z" fill="#41474E"/>
<path d="M462 510.107C461.615 510.9 461.003 511.562 460.242 512.008C459.481 512.454 458.605 512.664 457.724 512.612C456.844 512.56 455.999 512.248 455.295 511.716C454.592 511.183 454.062 510.454 453.773 509.621C453.485 508.788 453.449 507.887 453.672 507.034C453.895 506.18 454.365 505.412 455.025 504.826C455.684 504.24 456.502 503.863 457.376 503.742C458.25 503.621 459.14 503.762 459.933 504.147C460.46 504.402 460.932 504.759 461.321 505.197C461.71 505.635 462.009 506.145 462.201 506.699C462.393 507.252 462.474 507.838 462.44 508.423C462.405 509.007 462.256 509.58 462 510.107Z" fill="#41474E"/>
<path d="M434.313 485.673C433.928 486.467 433.317 487.129 432.556 487.574C431.795 488.02 430.918 488.231 430.038 488.179C429.157 488.127 428.312 487.815 427.609 487.282C426.906 486.75 426.376 486.021 426.087 485.188C425.798 484.354 425.763 483.454 425.985 482.6C426.208 481.747 426.679 480.979 427.338 480.393C427.997 479.807 428.816 479.429 429.689 479.309C430.563 479.188 431.453 479.328 432.247 479.713C432.774 479.969 433.245 480.326 433.635 480.764C434.024 481.202 434.323 481.712 434.515 482.265C434.707 482.819 434.788 483.405 434.753 483.989C434.719 484.574 434.569 485.146 434.313 485.673Z" fill="#41474E"/>
<path d="M446.953 501.44C446.568 502.234 445.956 502.895 445.195 503.341C444.434 503.787 443.558 503.997 442.678 503.945C441.797 503.893 440.952 503.581 440.248 503.049C439.545 502.517 439.016 501.788 438.727 500.954C438.438 500.121 438.402 499.221 438.625 498.367C438.848 497.514 439.318 496.745 439.978 496.159C440.637 495.573 441.455 495.196 442.329 495.075C443.203 494.954 444.093 495.095 444.886 495.48C445.414 495.736 445.885 496.092 446.274 496.53C446.663 496.968 446.962 497.478 447.154 498.032C447.346 498.585 447.427 499.171 447.393 499.756C447.358 500.341 447.209 500.913 446.953 501.44Z" fill="#41474E"/>
<path d="M499.76 476.087C499.375 476.88 498.763 477.542 498.002 477.988C497.241 478.434 496.365 478.644 495.484 478.592C494.604 478.54 493.758 478.228 493.055 477.696C492.352 477.163 491.822 476.434 491.533 475.601C491.244 474.768 491.209 473.867 491.432 473.014C491.654 472.16 492.125 471.392 492.784 470.806C493.444 470.22 494.262 469.843 495.136 469.722C496.009 469.601 496.899 469.742 497.693 470.127C498.756 470.644 499.571 471.562 499.958 472.679C500.346 473.797 500.274 475.022 499.76 476.087Z" fill="#41474E"/>
<path d="M474.733 486.7C474.348 487.494 473.737 488.155 472.976 488.601C472.215 489.047 471.338 489.257 470.458 489.205C469.577 489.153 468.732 488.841 468.029 488.309C467.325 487.777 466.796 487.048 466.507 486.214C466.218 485.381 466.183 484.481 466.405 483.627C466.628 482.774 467.099 482.005 467.758 481.419C468.417 480.833 469.236 480.456 470.109 480.335C470.983 480.214 471.873 480.355 472.667 480.74C473.194 480.996 473.665 481.352 474.054 481.79C474.444 482.228 474.743 482.738 474.935 483.292C475.127 483.845 475.208 484.431 475.173 485.016C475.139 485.601 474.989 486.173 474.733 486.7Z" fill="#41474E"/>
<path d="M518.066 468.06C517.681 468.854 517.07 469.515 516.309 469.961C515.548 470.407 514.671 470.617 513.791 470.565C512.91 470.513 512.065 470.201 511.362 469.669C510.658 469.137 510.129 468.408 509.84 467.574C509.551 466.741 509.516 465.841 509.738 464.987C509.961 464.134 510.432 463.365 511.091 462.779C511.75 462.193 512.569 461.816 513.442 461.695C514.316 461.574 515.206 461.715 516 462.1C516.527 462.356 516.998 462.712 517.387 463.15C517.777 463.588 518.076 464.098 518.268 464.652C518.459 465.205 518.54 465.791 518.506 466.376C518.471 466.961 518.322 467.533 518.066 468.06Z" fill="#41474E"/>
<path d="M557.547 446.98C557.161 447.773 556.549 448.435 555.787 448.88C555.026 449.326 554.149 449.535 553.269 449.483C552.388 449.43 551.543 449.117 550.84 448.584C550.137 448.051 549.608 447.321 549.32 446.487C549.032 445.654 548.997 444.753 549.221 443.9C549.445 443.046 549.916 442.278 550.576 441.693C551.236 441.108 552.055 440.732 552.929 440.612C553.803 440.492 554.693 440.634 555.487 441.02C556.55 441.537 557.364 442.456 557.751 443.573C558.137 444.691 558.063 445.916 557.547 446.98Z" fill="#41474E"/>
<path d="M577.18 434.84C576.795 435.634 576.183 436.295 575.422 436.741C574.661 437.187 573.785 437.397 572.904 437.345C572.024 437.293 571.178 436.981 570.475 436.449C569.772 435.917 569.242 435.188 568.953 434.354C568.664 433.521 568.629 432.621 568.852 431.767C569.074 430.914 569.545 430.145 570.204 429.559C570.864 428.973 571.682 428.596 572.556 428.475C573.429 428.354 574.319 428.495 575.113 428.88C576.176 429.398 576.991 430.316 577.378 431.433C577.766 432.55 577.694 433.775 577.18 434.84Z" fill="#41474E"/>
<path d="M474.733 457.413C474.343 458.202 473.728 458.857 472.966 459.297C472.204 459.737 471.329 459.941 470.451 459.885C469.573 459.829 468.731 459.514 468.032 458.98C467.332 458.447 466.806 457.718 466.52 456.887C466.233 456.055 466.199 455.157 466.421 454.306C466.644 453.454 467.113 452.688 467.771 452.103C468.428 451.518 469.243 451.14 470.114 451.018C470.985 450.895 471.873 451.033 472.666 451.413C473.198 451.669 473.674 452.028 474.066 452.469C474.458 452.91 474.758 453.425 474.951 453.983C475.143 454.54 475.222 455.131 475.185 455.72C475.148 456.309 474.994 456.884 474.733 457.413Z" fill="#41474E"/>
<path d="M523.933 428.867C523.548 429.66 522.937 430.322 522.176 430.768C521.415 431.214 520.539 431.424 519.658 431.372C518.778 431.32 517.932 431.008 517.229 430.476C516.526 429.943 515.996 429.214 515.707 428.381C515.418 427.548 515.383 426.647 515.605 425.794C515.828 424.94 516.299 424.172 516.958 423.586C517.618 423 518.436 422.623 519.309 422.502C520.183 422.381 521.073 422.522 521.867 422.907C522.394 423.162 522.866 423.519 523.255 423.957C523.644 424.395 523.943 424.905 524.135 425.459C524.327 426.012 524.408 426.598 524.373 427.183C524.339 427.767 524.189 428.34 523.933 428.867Z" fill="#41474E"/>
<path d="M455.76 437.473C455.375 438.267 454.763 438.928 454.002 439.374C453.241 439.82 452.365 440.031 451.484 439.979C450.604 439.927 449.758 439.615 449.055 439.082C448.352 438.55 447.822 437.821 447.533 436.988C447.244 436.154 447.209 435.254 447.432 434.4C447.654 433.547 448.125 432.779 448.784 432.193C449.444 431.607 450.262 431.229 451.136 431.109C452.009 430.988 452.899 431.128 453.693 431.513C454.756 432.031 455.571 432.949 455.958 434.066C456.346 435.183 456.274 436.409 455.76 437.473Z" fill="#41474E"/>
<path d="M520.954 485.333C520.568 486.127 519.956 486.788 519.194 487.233C518.433 487.679 517.556 487.889 516.676 487.836C515.795 487.783 514.95 487.47 514.247 486.937C513.544 486.404 513.015 485.675 512.727 484.841C512.439 484.007 512.404 483.106 512.628 482.253C512.852 481.4 513.323 480.632 513.984 480.047C514.644 479.461 515.463 479.085 516.337 478.965C517.211 478.845 518.1 478.987 518.894 479.373C519.957 479.891 520.771 480.809 521.158 481.927C521.544 483.044 521.471 484.27 520.954 485.333Z" fill="#41474E"/>
<path d="M535.387 461.64C535.002 462.434 534.39 463.095 533.629 463.541C532.868 463.987 531.992 464.197 531.111 464.145C530.231 464.093 529.385 463.781 528.682 463.249C527.979 462.717 527.449 461.988 527.16 461.154C526.871 460.321 526.836 459.421 527.059 458.567C527.281 457.714 527.752 456.945 528.411 456.359C529.071 455.773 529.889 455.396 530.763 455.275C531.636 455.154 532.526 455.295 533.32 455.68C533.847 455.936 534.319 456.292 534.708 456.73C535.097 457.168 535.396 457.678 535.588 458.232C535.78 458.785 535.861 459.371 535.826 459.956C535.792 460.541 535.642 461.113 535.387 461.64Z" fill="#41474E"/>
<path d="M523.833 453.62C523.447 454.413 522.835 455.073 522.074 455.518C521.313 455.963 520.437 456.172 519.557 456.12C518.677 456.067 517.832 455.755 517.129 455.222C516.426 454.689 515.897 453.961 515.609 453.127C515.32 452.294 515.285 451.394 515.508 450.541C515.731 449.688 516.201 448.92 516.86 448.334C517.519 447.749 518.337 447.371 519.21 447.25C520.083 447.129 520.973 447.269 521.767 447.653C522.83 448.172 523.645 449.091 524.032 450.21C524.42 451.328 524.348 452.554 523.833 453.62Z" fill="#41474E"/>
<path d="M520 390.707C519.615 391.5 519.003 392.162 518.242 392.608C517.481 393.054 516.605 393.264 515.724 393.212C514.844 393.16 513.999 392.848 513.295 392.316C512.592 391.783 512.062 391.054 511.773 390.221C511.485 389.388 511.449 388.487 511.672 387.634C511.895 386.78 512.365 386.012 513.025 385.426C513.684 384.84 514.502 384.463 515.376 384.342C516.25 384.221 517.14 384.362 517.933 384.747C518.997 385.264 519.811 386.182 520.199 387.299C520.586 388.417 520.515 389.642 520 390.707Z" fill="#41474E"/>
<path d="M499.76 406.467C499.375 407.26 498.763 407.922 498.002 408.368C497.241 408.814 496.365 409.024 495.484 408.972C494.604 408.92 493.758 408.608 493.055 408.076C492.352 407.543 491.822 406.814 491.533 405.981C491.244 405.148 491.209 404.247 491.432 403.394C491.654 402.54 492.125 401.772 492.784 401.186C493.444 400.6 494.262 400.223 495.136 400.102C496.009 399.981 496.899 400.122 497.693 400.507C498.756 401.024 499.571 401.942 499.958 403.059C500.346 404.177 500.274 405.402 499.76 406.467Z" fill="#41474E"/>
<path d="M479.193 420.313C478.803 421.102 478.188 421.757 477.426 422.197C476.664 422.637 475.789 422.841 474.911 422.785C474.033 422.729 473.191 422.414 472.492 421.88C471.792 421.347 471.266 420.618 470.979 419.787C470.693 418.955 470.659 418.057 470.881 417.206C471.104 416.354 471.573 415.588 472.23 415.003C472.888 414.418 473.703 414.04 474.574 413.918C475.445 413.795 476.333 413.933 477.126 414.313C477.658 414.569 478.133 414.928 478.526 415.369C478.918 415.81 479.218 416.325 479.411 416.883C479.603 417.44 479.682 418.031 479.645 418.62C479.608 419.209 479.454 419.784 479.193 420.313Z" fill="#41474E"/>
<path d="M446.806 457.413C446.416 458.202 445.801 458.857 445.039 459.297C444.277 459.737 443.402 459.941 442.524 459.885C441.646 459.829 440.804 459.514 440.105 458.98C439.405 458.447 438.879 457.718 438.593 456.887C438.306 456.055 438.272 455.157 438.495 454.306C438.717 453.454 439.187 452.688 439.844 452.103C440.501 451.518 441.316 451.14 442.187 451.018C443.059 450.895 443.947 451.033 444.74 451.413C445.271 451.669 445.747 452.028 446.139 452.469C446.531 452.91 446.832 453.425 447.024 453.983C447.216 454.54 447.296 455.131 447.258 455.72C447.221 456.309 447.067 456.884 446.806 457.413Z" fill="#41474E"/>
<path d="M586.1 466.46C585.71 467.248 585.095 467.904 584.333 468.343C583.571 468.783 582.696 468.988 581.818 468.932C580.94 468.875 580.098 468.561 579.399 468.027C578.699 467.494 578.173 466.765 577.887 465.933C577.6 465.101 577.566 464.203 577.789 463.352C578.011 462.501 578.481 461.735 579.138 461.15C579.795 460.565 580.61 460.187 581.481 460.064C582.353 459.942 583.241 460.079 584.034 460.46C584.565 460.716 585.041 461.075 585.433 461.516C585.825 461.957 586.126 462.471 586.318 463.029C586.51 463.587 586.59 464.177 586.552 464.766C586.515 465.355 586.361 465.931 586.1 466.46Z" fill="#41474E"/>
<path d="M549.506 468.06C549.121 468.853 548.509 469.515 547.747 469.96C546.986 470.406 546.109 470.615 545.229 470.562C544.348 470.51 543.503 470.197 542.8 469.664C542.097 469.131 541.568 468.401 541.28 467.567C540.992 466.734 540.957 465.833 541.181 464.98C541.405 464.126 541.876 463.358 542.536 462.773C543.196 462.188 544.015 461.812 544.889 461.692C545.763 461.572 546.653 461.714 547.446 462.1C548.51 462.617 549.324 463.536 549.71 464.653C550.097 465.771 550.023 466.996 549.506 468.06Z" fill="#41474E"/>
<path d="M484.993 469.333C484.608 470.127 483.996 470.788 483.235 471.234C482.474 471.68 481.598 471.891 480.718 471.839C479.837 471.787 478.992 471.475 478.289 470.942C477.585 470.41 477.056 469.681 476.767 468.848C476.478 468.014 476.442 467.114 476.665 466.26C476.888 465.407 477.358 464.639 478.018 464.053C478.677 463.467 479.495 463.089 480.369 462.969C481.243 462.848 482.133 462.988 482.927 463.373C483.99 463.891 484.804 464.809 485.192 465.926C485.579 467.043 485.508 468.269 484.993 469.333Z" fill="#41474E"/>
<path d="M511.633 482.187C511.248 482.98 510.636 483.642 509.875 484.088C509.114 484.534 508.238 484.744 507.357 484.692C506.477 484.64 505.631 484.328 504.928 483.796C504.225 483.263 503.695 482.534 503.406 481.701C503.117 480.868 503.082 479.967 503.305 479.114C503.527 478.26 503.998 477.492 504.657 476.906C505.317 476.32 506.135 475.943 507.009 475.822C507.882 475.701 508.772 475.842 509.566 476.227C510.629 476.744 511.444 477.662 511.831 478.779C512.219 479.897 512.147 481.122 511.633 482.187Z" fill="#41474E"/>
<path d="M602.793 421.2C602.407 421.993 601.795 422.653 601.034 423.098C600.273 423.543 599.397 423.752 598.517 423.7C597.637 423.647 596.792 423.335 596.089 422.802C595.386 422.269 594.857 421.541 594.569 420.707C594.28 419.874 594.245 418.974 594.468 418.121C594.691 417.268 595.161 416.5 595.82 415.914C596.479 415.329 597.297 414.951 598.17 414.83C599.043 414.709 599.933 414.849 600.727 415.233C601.255 415.489 601.727 415.846 602.117 416.284C602.506 416.723 602.806 417.234 602.998 417.788C603.19 418.342 603.27 418.929 603.235 419.514C603.2 420.1 603.05 420.673 602.793 421.2Z" fill="#41474E"/>
<path d="M617.073 438.533C616.687 439.326 616.074 439.986 615.312 440.431C614.551 440.875 613.674 441.084 612.794 441.03C611.914 440.977 611.069 440.664 610.367 440.13C609.665 439.597 609.136 438.867 608.849 438.034C608.561 437.2 608.527 436.3 608.75 435.447C608.974 434.594 609.445 433.827 610.105 433.242C610.765 432.657 611.583 432.28 612.457 432.16C613.33 432.04 614.22 432.181 615.013 432.567C615.54 432.823 616.012 433.18 616.401 433.619C616.79 434.058 617.089 434.569 617.28 435.123C617.472 435.677 617.552 436.264 617.516 436.849C617.481 437.434 617.33 438.006 617.073 438.533Z" fill="#41474E"/>
<path d="M648.373 424.407C647.988 425.2 647.376 425.862 646.615 426.308C645.854 426.754 644.978 426.964 644.097 426.912C643.217 426.86 642.372 426.548 641.668 426.016C640.965 425.483 640.436 424.754 640.147 423.921C639.858 423.088 639.822 422.187 640.045 421.334C640.268 420.48 640.738 419.712 641.398 419.126C642.057 418.54 642.875 418.163 643.749 418.042C644.623 417.921 645.513 418.062 646.306 418.447C647.37 418.964 648.184 419.882 648.572 420.999C648.959 422.117 648.888 423.342 648.373 424.407Z" fill="#41474E"/>
<path d="M682.393 410.927C682.008 411.72 681.395 412.381 680.634 412.827C679.872 413.272 678.996 413.482 678.115 413.429C677.235 413.376 676.39 413.064 675.687 412.531C674.984 411.997 674.455 411.268 674.167 410.434C673.878 409.6 673.844 408.7 674.068 407.846C674.291 406.993 674.763 406.225 675.423 405.64C676.083 405.055 676.902 404.678 677.776 404.558C678.65 404.439 679.54 404.581 680.333 404.967C681.397 405.484 682.211 406.403 682.597 407.52C682.984 408.638 682.91 409.863 682.393 410.927Z" fill="#41474E"/>
<path d="M705.827 400.333C705.441 401.127 704.829 401.788 704.067 402.234C703.306 402.679 702.43 402.889 701.549 402.836C700.668 402.783 699.823 402.47 699.12 401.937C698.417 401.404 697.888 400.675 697.6 399.841C697.312 399.007 697.278 398.106 697.501 397.253C697.725 396.4 698.197 395.632 698.857 395.047C699.517 394.461 700.336 394.085 701.21 393.965C702.084 393.845 702.974 393.987 703.767 394.373C704.83 394.891 705.644 395.809 706.031 396.927C706.417 398.044 706.344 399.27 705.827 400.333Z" fill="#41474E"/>
<path d="M736.16 411.567C735.774 412.36 735.162 413.021 734.401 413.467C733.639 413.912 732.763 414.122 731.882 414.069C731.001 414.016 730.156 413.704 729.453 413.171C728.75 412.637 728.221 411.908 727.933 411.074C727.645 410.24 727.611 409.34 727.834 408.486C728.058 407.633 728.53 406.865 729.19 406.28C729.85 405.695 730.669 405.318 731.543 405.198C732.417 405.079 733.307 405.221 734.1 405.607C735.163 406.124 735.978 407.043 736.364 408.16C736.75 409.278 736.677 410.503 736.16 411.567Z" fill="#41474E"/>
<path d="M708.88 422.32C708.495 423.114 707.883 423.775 707.122 424.221C706.361 424.667 705.485 424.877 704.604 424.825C703.724 424.773 702.878 424.461 702.175 423.929C701.472 423.397 700.942 422.668 700.653 421.834C700.364 421.001 700.329 420.101 700.552 419.247C700.774 418.394 701.245 417.625 701.904 417.039C702.564 416.453 703.382 416.076 704.256 415.955C705.13 415.834 706.019 415.975 706.813 416.36C707.34 416.616 707.812 416.973 708.201 417.41C708.59 417.848 708.889 418.358 709.081 418.912C709.273 419.465 709.354 420.051 709.32 420.636C709.285 421.221 709.136 421.793 708.88 422.32Z" fill="#41474E"/>
<path d="M676.46 434.84C676.075 435.634 675.463 436.295 674.702 436.741C673.941 437.187 673.065 437.397 672.184 437.345C671.304 437.293 670.459 436.981 669.755 436.449C669.052 435.917 668.522 435.188 668.233 434.354C667.944 433.521 667.909 432.621 668.132 431.767C668.354 430.914 668.825 430.145 669.485 429.559C670.144 428.973 670.962 428.596 671.836 428.475C672.71 428.354 673.6 428.495 674.393 428.88C675.456 429.398 676.271 430.316 676.659 431.433C677.046 432.55 676.975 433.775 676.46 434.84Z" fill="#41474E"/>
<path d="M646.127 446.393C645.742 447.187 645.13 447.849 644.369 448.294C643.608 448.74 642.732 448.951 641.851 448.899C640.971 448.847 640.126 448.535 639.422 448.002C638.719 447.47 638.189 446.741 637.9 445.908C637.611 445.074 637.576 444.174 637.799 443.32C638.021 442.467 638.492 441.699 639.152 441.113C639.811 440.527 640.629 440.149 641.503 440.029C642.377 439.908 643.267 440.049 644.06 440.433C644.587 440.689 645.059 441.046 645.448 441.484C645.837 441.922 646.136 442.432 646.328 442.985C646.52 443.539 646.601 444.125 646.567 444.709C646.532 445.294 646.383 445.866 646.127 446.393Z" fill="#41474E"/>
<path d="M686.254 345.607C685.869 346.4 685.257 347.062 684.496 347.508C683.735 347.954 682.859 348.164 681.978 348.112C681.098 348.06 680.252 347.748 679.549 347.216C678.846 346.683 678.316 345.954 678.027 345.121C677.738 344.288 677.703 343.387 677.926 342.534C678.148 341.68 678.619 340.912 679.279 340.326C679.938 339.74 680.756 339.363 681.63 339.242C682.504 339.121 683.394 339.262 684.187 339.647C685.25 340.164 686.065 341.082 686.452 342.199C686.84 343.317 686.768 344.542 686.254 345.607Z" fill="#41474E"/>
<path d="M655.113 371.927C654.728 372.72 654.116 373.382 653.355 373.828C652.594 374.274 651.718 374.484 650.838 374.432C649.957 374.38 649.112 374.068 648.409 373.536C647.705 373.003 647.176 372.274 646.887 371.441C646.598 370.608 646.562 369.707 646.785 368.854C647.008 368 647.479 367.232 648.138 366.646C648.797 366.06 649.615 365.683 650.489 365.562C651.363 365.441 652.253 365.582 653.047 365.967C653.574 366.222 654.045 366.579 654.434 367.017C654.823 367.455 655.123 367.965 655.314 368.519C655.506 369.072 655.587 369.658 655.553 370.243C655.518 370.827 655.369 371.4 655.113 371.927Z" fill="#41474E"/>
<path d="M633.287 391.187C632.902 391.98 632.29 392.642 631.529 393.088C630.768 393.534 629.892 393.744 629.012 393.692C628.131 393.64 627.286 393.328 626.582 392.796C625.879 392.263 625.35 391.534 625.061 390.701C624.772 389.868 624.736 388.967 624.959 388.114C625.182 387.26 625.652 386.492 626.312 385.906C626.971 385.32 627.789 384.943 628.663 384.822C629.537 384.701 630.427 384.842 631.22 385.227C631.748 385.482 632.219 385.839 632.608 386.277C632.997 386.715 633.296 387.225 633.488 387.779C633.68 388.332 633.761 388.918 633.727 389.503C633.692 390.087 633.543 390.66 633.287 391.187Z" fill="#41474E"/>
<path d="M615.634 406.593C615.249 407.387 614.637 408.048 613.876 408.494C613.115 408.94 612.239 409.151 611.358 409.099C610.478 409.047 609.632 408.735 608.929 408.202C608.226 407.67 607.696 406.941 607.407 406.108C607.118 405.274 607.083 404.374 607.306 403.52C607.528 402.667 607.999 401.899 608.658 401.313C609.318 400.727 610.136 400.349 611.01 400.229C611.883 400.108 612.773 400.248 613.567 400.633C614.63 401.151 615.445 402.069 615.832 403.186C616.22 404.303 616.148 405.529 615.634 406.593Z" fill="#41474E"/>
<path d="M689.78 381.073C689.395 381.867 688.783 382.528 688.022 382.974C687.261 383.42 686.385 383.631 685.505 383.579C684.624 383.527 683.779 383.215 683.076 382.682C682.372 382.15 681.843 381.421 681.554 380.588C681.265 379.754 681.229 378.854 681.452 378C681.675 377.147 682.146 376.379 682.805 375.793C683.464 375.207 684.282 374.829 685.156 374.709C686.03 374.588 686.92 374.728 687.714 375.113C688.777 375.631 689.591 376.549 689.979 377.666C690.366 378.783 690.295 380.009 689.78 381.073Z" fill="#41474E"/>
<path d="M712.886 371.447C712.5 372.238 711.889 372.897 711.128 373.341C710.368 373.784 709.493 373.992 708.615 373.939C707.736 373.886 706.893 373.573 706.191 373.041C705.49 372.509 704.963 371.781 704.675 370.949C704.387 370.117 704.353 369.218 704.576 368.367C704.799 367.515 705.269 366.749 705.927 366.164C706.585 365.58 707.402 365.203 708.274 365.083C709.146 364.962 710.034 365.103 710.826 365.487C711.89 366.004 712.704 366.923 713.09 368.04C713.477 369.158 713.403 370.383 712.886 371.447Z" fill="#41474E"/>
<path d="M669.24 391.667C668.855 392.46 668.243 393.122 667.482 393.568C666.721 394.014 665.845 394.224 664.965 394.172C664.084 394.12 663.239 393.808 662.536 393.276C661.832 392.743 661.303 392.014 661.014 391.181C660.725 390.348 660.689 389.447 660.912 388.594C661.135 387.74 661.606 386.972 662.265 386.386C662.924 385.8 663.742 385.423 664.616 385.302C665.49 385.181 666.38 385.322 667.173 385.707C668.237 386.224 669.051 387.142 669.439 388.259C669.826 389.377 669.755 390.602 669.24 391.667Z" fill="#41474E"/>
<path d="M634.087 406.593C633.708 407.392 633.101 408.059 632.342 408.512C631.583 408.964 630.707 409.181 629.825 409.135C628.942 409.089 628.094 408.782 627.386 408.253C626.679 407.723 626.144 406.996 625.851 406.162C625.557 405.329 625.518 404.427 625.738 403.572C625.958 402.716 626.427 401.945 627.086 401.356C627.744 400.767 628.563 400.387 629.438 400.265C630.313 400.142 631.205 400.282 632 400.667C633.064 401.184 633.878 402.103 634.264 403.22C634.651 404.338 634.577 405.563 634.06 406.627" fill="#41474E"/>
<path d="M543.894 376.42C543.509 377.214 542.897 377.875 542.136 378.321C541.375 378.767 540.499 378.977 539.618 378.925C538.738 378.873 537.892 378.561 537.189 378.029C536.486 377.497 535.956 376.768 535.667 375.934C535.378 375.101 535.343 374.201 535.565 373.347C535.788 372.494 536.259 371.725 536.918 371.139C537.577 370.553 538.396 370.176 539.269 370.055C540.143 369.934 541.033 370.075 541.827 370.46C542.354 370.716 542.826 371.073 543.215 371.51C543.604 371.948 543.903 372.458 544.095 373.012C544.287 373.565 544.368 374.151 544.333 374.736C544.299 375.321 544.149 375.893 543.894 376.42Z" fill="#41474E"/>
<path d="M556.086 359.733C555.695 360.522 555.08 361.177 554.317 361.616C553.555 362.055 552.68 362.259 551.802 362.202C550.924 362.145 550.082 361.83 549.383 361.295C548.684 360.761 548.158 360.032 547.873 359.2C547.587 358.367 547.554 357.469 547.777 356.618C548.001 355.767 548.471 355.001 549.129 354.417C549.787 353.833 550.603 353.456 551.474 353.334C552.346 353.213 553.234 353.351 554.026 353.733C554.558 353.989 555.035 354.347 555.427 354.788C555.819 355.229 556.12 355.744 556.312 356.302C556.503 356.861 556.582 357.451 556.544 358.04C556.505 358.629 556.349 359.205 556.086 359.733Z" fill="#41474E"/>
<path d="M570.533 340.473C570.148 341.266 569.535 341.927 568.774 342.372C568.013 342.816 567.137 343.026 566.257 342.973C565.377 342.92 564.532 342.608 563.829 342.075C563.127 341.543 562.598 340.814 562.309 339.981C562.021 339.148 561.985 338.248 562.208 337.395C562.431 336.541 562.901 335.774 563.56 335.188C564.219 334.602 565.037 334.225 565.91 334.103C566.784 333.982 567.673 334.122 568.467 334.507C568.995 334.762 569.467 335.119 569.857 335.558C570.246 335.996 570.546 336.507 570.738 337.061C570.93 337.616 571.011 338.202 570.975 338.788C570.94 339.373 570.79 339.946 570.533 340.473Z" fill="#41474E"/>
<path d="M593 318C592.614 318.793 592.002 319.455 591.24 319.9C590.479 320.346 589.602 320.555 588.722 320.502C587.841 320.45 586.996 320.137 586.293 319.604C585.59 319.071 585.061 318.341 584.773 317.507C584.485 316.674 584.45 315.773 584.674 314.92C584.898 314.066 585.369 313.299 586.029 312.713C586.69 312.128 587.508 311.752 588.382 311.632C589.256 311.512 590.146 311.654 590.94 312.04C592.003 312.557 592.817 313.476 593.204 314.594C593.59 315.711 593.516 316.936 593 318Z" fill="#41474E"/>
<path d="M573.74 298.747C573.354 299.538 572.742 300.197 571.982 300.64C571.222 301.084 570.347 301.292 569.468 301.239C568.589 301.186 567.746 300.873 567.045 300.341C566.344 299.809 565.816 299.081 565.529 298.249C565.241 297.417 565.206 296.518 565.429 295.667C565.652 294.815 566.122 294.049 566.781 293.464C567.439 292.88 568.256 292.503 569.128 292.383C570 292.262 570.888 292.403 571.68 292.787C572.743 293.304 573.558 294.223 573.944 295.34C574.33 296.458 574.257 297.683 573.74 298.747Z" fill="#41474E"/>
<path d="M558.666 324.427C558.28 325.219 557.668 325.88 556.907 326.325C556.146 326.77 555.27 326.979 554.39 326.926C553.51 326.874 552.665 326.561 551.962 326.029C551.259 325.496 550.73 324.767 550.442 323.934C550.153 323.101 550.118 322.201 550.341 321.348C550.564 320.495 551.034 319.727 551.693 319.141C552.352 318.555 553.17 318.178 554.043 318.057C554.916 317.935 555.806 318.076 556.6 318.46C557.663 318.979 558.478 319.898 558.865 321.016C559.253 322.135 559.181 323.361 558.666 324.427Z" fill="#41474E"/>
<path d="M547.5 343.127C547.109 343.915 546.494 344.57 545.732 345.009C544.969 345.448 544.094 345.652 543.216 345.595C542.338 345.538 541.496 345.223 540.797 344.689C540.098 344.154 539.572 343.425 539.287 342.593C539.001 341.761 538.968 340.863 539.191 340.012C539.415 339.161 539.885 338.395 540.543 337.81C541.201 337.226 542.017 336.849 542.888 336.728C543.76 336.606 544.648 336.745 545.44 337.127C545.971 337.383 546.446 337.743 546.838 338.184C547.229 338.625 547.529 339.14 547.721 339.697C547.912 340.255 547.991 340.845 547.953 341.434C547.916 342.023 547.762 342.598 547.5 343.127Z" fill="#41474E"/>
<path d="M537.873 361.18C537.488 361.974 536.876 362.635 536.115 363.081C535.354 363.527 534.478 363.737 533.598 363.685C532.717 363.633 531.872 363.321 531.168 362.789C530.465 362.257 529.936 361.528 529.647 360.694C529.358 359.861 529.322 358.961 529.545 358.107C529.768 357.254 530.238 356.485 530.898 355.899C531.557 355.313 532.375 354.936 533.249 354.815C534.123 354.694 535.013 354.835 535.806 355.22C536.334 355.476 536.805 355.832 537.194 356.27C537.583 356.708 537.882 357.218 538.074 357.772C538.266 358.325 538.347 358.911 538.313 359.496C538.278 360.081 538.129 360.653 537.873 361.18Z" fill="#41474E"/>
<path d="M678.787 296.733C678.402 297.527 677.79 298.188 677.029 298.634C676.268 299.08 675.392 299.291 674.512 299.239C673.631 299.187 672.786 298.875 672.082 298.342C671.379 297.81 670.85 297.081 670.561 296.248C670.272 295.414 670.236 294.514 670.459 293.66C670.682 292.807 671.152 292.039 671.812 291.453C672.471 290.867 673.289 290.489 674.163 290.369C675.037 290.248 675.927 290.388 676.72 290.773C677.784 291.291 678.598 292.209 678.986 293.326C679.373 294.443 679.302 295.669 678.787 296.733Z" fill="#41474E"/>
<path d="M700.453 262.553C700.067 263.346 699.455 264.007 698.694 264.452C697.933 264.896 697.057 265.106 696.177 265.053C695.297 265 694.452 264.688 693.749 264.155C693.047 263.623 692.518 262.894 692.229 262.061C691.94 261.228 691.905 260.328 692.128 259.475C692.351 258.621 692.821 257.854 693.48 257.268C694.139 256.682 694.957 256.305 695.83 256.183C696.703 256.062 697.593 256.203 698.387 256.587C699.45 257.106 700.265 258.025 700.652 259.143C701.04 260.261 700.968 261.488 700.453 262.553Z" fill="#41474E"/>
<path d="M803.486 291.92C803.101 292.714 802.49 293.375 801.729 293.821C800.968 294.267 800.091 294.477 799.211 294.425C798.33 294.373 797.485 294.061 796.782 293.529C796.078 292.997 795.549 292.268 795.26 291.434C794.971 290.601 794.935 289.701 795.158 288.847C795.381 287.994 795.852 287.225 796.511 286.639C797.17 286.053 797.989 285.676 798.862 285.555C799.736 285.434 800.626 285.575 801.42 285.96C801.947 286.216 802.418 286.572 802.807 287.01C803.197 287.448 803.496 287.958 803.688 288.512C803.879 289.065 803.96 289.651 803.926 290.236C803.891 290.821 803.742 291.393 803.486 291.92Z" fill="#41474E"/>
<path d="M815.52 292.4C815.134 293.191 814.522 293.85 813.762 294.294C813.002 294.737 812.127 294.946 811.248 294.893C810.37 294.839 809.526 294.527 808.825 293.995C808.124 293.462 807.596 292.734 807.309 291.902C807.021 291.07 806.987 290.172 807.21 289.32C807.432 288.468 807.903 287.702 808.561 287.117C809.219 286.533 810.036 286.157 810.908 286.036C811.78 285.915 812.668 286.056 813.46 286.44C814.524 286.957 815.338 287.876 815.724 288.993C816.111 290.111 816.037 291.336 815.52 292.4Z" fill="#41474E"/>
<path d="M789.04 270.74C788.654 271.533 788.042 272.193 787.281 272.638C786.52 273.083 785.644 273.292 784.764 273.24C783.884 273.187 783.039 272.875 782.336 272.342C781.634 271.809 781.105 271.081 780.816 270.247C780.527 269.414 780.492 268.514 780.715 267.661C780.938 266.808 781.408 266.04 782.067 265.454C782.726 264.869 783.544 264.491 784.417 264.37C785.29 264.249 786.18 264.389 786.974 264.773C787.501 265.029 787.974 265.386 788.364 265.824C788.753 266.263 789.053 266.774 789.245 267.328C789.437 267.882 789.517 268.469 789.482 269.054C789.447 269.64 789.297 270.213 789.04 270.74Z" fill="#41474E"/>
<path d="M776.526 272.18C776.141 272.974 775.53 273.635 774.769 274.081C774.007 274.527 773.131 274.737 772.251 274.685C771.37 274.633 770.525 274.321 769.822 273.789C769.118 273.257 768.589 272.528 768.3 271.694C768.011 270.861 767.976 269.961 768.198 269.107C768.421 268.254 768.892 267.485 769.551 266.899C770.21 266.313 771.028 265.936 771.902 265.815C772.776 265.694 773.666 265.835 774.46 266.22C775.523 266.738 776.337 267.656 776.725 268.773C777.112 269.89 777.041 271.115 776.526 272.18Z" fill="#41474E"/>
<path d="M536.267 245.22C535.881 246.013 535.269 246.673 534.507 247.118C533.746 247.563 532.87 247.772 531.99 247.72C531.11 247.667 530.265 247.355 529.563 246.822C528.86 246.289 528.331 245.561 528.043 244.727C527.754 243.894 527.719 242.994 527.941 242.141C528.164 241.288 528.635 240.52 529.294 239.934C529.953 239.349 530.77 238.971 531.644 238.85C532.517 238.729 533.407 238.869 534.2 239.253C535.265 239.771 536.081 240.69 536.469 241.809C536.856 242.928 536.784 244.155 536.267 245.22Z" fill="#41474E"/>
<path d="M440.453 213.44C440.068 214.234 439.456 214.895 438.695 215.341C437.934 215.787 437.058 215.997 436.178 215.945C435.297 215.893 434.452 215.581 433.748 215.049C433.045 214.517 432.516 213.788 432.227 212.954C431.938 212.121 431.902 211.221 432.125 210.367C432.348 209.514 432.818 208.745 433.478 208.159C434.137 207.573 434.955 207.196 435.829 207.075C436.703 206.954 437.593 207.095 438.386 207.48C438.914 207.736 439.385 208.092 439.774 208.53C440.163 208.968 440.462 209.478 440.654 210.032C440.846 210.585 440.927 211.171 440.893 211.756C440.858 212.341 440.709 212.913 440.453 213.44Z" fill="#41474E"/>
<path d="M384.44 378.427C384.055 379.22 383.444 379.882 382.683 380.328C381.922 380.774 381.045 380.984 380.165 380.932C379.284 380.88 378.439 380.568 377.736 380.036C377.032 379.503 376.503 378.774 376.214 377.941C375.925 377.108 375.89 376.207 376.112 375.354C376.335 374.5 376.806 373.732 377.465 373.146C378.124 372.56 378.943 372.183 379.816 372.062C380.69 371.941 381.58 372.082 382.374 372.467C383.437 372.984 384.252 373.902 384.639 375.02C385.026 376.137 384.955 377.362 384.44 378.427Z" fill="#41474E"/>
<path d="M337.9 317.44C337.51 318.228 336.895 318.884 336.133 319.324C335.371 319.763 334.496 319.968 333.618 319.912C332.74 319.855 331.898 319.541 331.199 319.007C330.499 318.474 329.973 317.745 329.687 316.913C329.4 316.081 329.366 315.183 329.588 314.332C329.811 313.481 330.28 312.715 330.937 312.13C331.595 311.545 332.41 311.167 333.281 311.044C334.152 310.922 335.04 311.059 335.833 311.44C336.365 311.696 336.841 312.055 337.233 312.496C337.625 312.937 337.925 313.451 338.118 314.009C338.31 314.567 338.389 315.157 338.352 315.746C338.315 316.335 338.161 316.911 337.9 317.44Z" fill="#41474E"/>
<path d="M289.426 253.24C289.041 254.033 288.429 254.695 287.667 255.14C286.906 255.586 286.029 255.795 285.149 255.742C284.268 255.69 283.423 255.377 282.72 254.844C282.017 254.311 281.488 253.581 281.2 252.747C280.912 251.914 280.877 251.013 281.101 250.16C281.324 249.306 281.796 248.539 282.456 247.953C283.116 247.368 283.935 246.992 284.809 246.872C285.683 246.752 286.573 246.894 287.366 247.28C288.43 247.797 289.244 248.716 289.63 249.833C290.017 250.951 289.943 252.176 289.426 253.24Z" fill="#41474E"/>
<path d="M219.133 149.72C218.748 150.514 218.136 151.175 217.375 151.621C216.614 152.067 215.738 152.277 214.857 152.225C213.977 152.173 213.131 151.861 212.428 151.329C211.725 150.797 211.195 150.068 210.906 149.234C210.617 148.401 210.582 147.501 210.805 146.647C211.027 145.794 211.498 145.025 212.157 144.439C212.817 143.853 213.635 143.476 214.509 143.355C215.382 143.234 216.272 143.375 217.066 143.76C217.593 144.016 218.065 144.372 218.454 144.81C218.843 145.248 219.142 145.758 219.334 146.312C219.526 146.865 219.607 147.451 219.572 148.036C219.538 148.621 219.389 149.193 219.133 149.72Z" fill="#41474E"/>
<path d="M290.393 155.5C290.008 156.294 289.397 156.955 288.636 157.401C287.875 157.847 286.999 158.057 286.118 158.005C285.237 157.953 284.392 157.641 283.689 157.109C282.986 156.577 282.456 155.848 282.167 155.014C281.878 154.181 281.843 153.281 282.065 152.427C282.288 151.574 282.759 150.805 283.418 150.219C284.077 149.633 284.896 149.256 285.769 149.135C286.643 149.014 287.533 149.155 288.327 149.54C288.854 149.796 289.325 150.152 289.715 150.59C290.104 151.028 290.403 151.538 290.595 152.092C290.787 152.645 290.868 153.231 290.833 153.816C290.799 154.401 290.649 154.973 290.393 155.5Z" fill="#41474E"/>
<path d="M372.214 558.787C372.191 559.468 371.967 560.127 371.569 560.681C371.172 561.234 370.62 561.658 369.982 561.898C369.344 562.138 368.649 562.183 367.985 562.028C367.322 561.873 366.719 561.525 366.253 561.027C365.787 560.53 365.479 559.905 365.368 559.233C365.257 558.561 365.348 557.87 365.629 557.249C365.911 556.629 366.369 556.105 366.948 555.745C367.527 555.385 368.199 555.205 368.88 555.227C369.333 555.241 369.778 555.345 370.191 555.532C370.604 555.719 370.975 555.985 371.285 556.316C371.594 556.646 371.836 557.035 371.995 557.459C372.155 557.883 372.229 558.334 372.214 558.787Z" fill="#41474E"/>
<path d="M362.42 568.84C362.401 569.524 362.18 570.186 361.784 570.744C361.388 571.302 360.835 571.729 360.195 571.972C359.556 572.216 358.859 572.263 358.192 572.11C357.526 571.956 356.92 571.608 356.452 571.11C355.983 570.611 355.673 569.985 355.561 569.31C355.449 568.635 355.54 567.943 355.822 567.32C356.105 566.696 356.566 566.171 357.147 565.811C357.728 565.45 358.403 565.27 359.087 565.293C359.997 565.326 360.858 565.717 361.482 566.381C362.107 567.046 362.443 567.929 362.42 568.84Z" fill="#41474E"/>
<path d="M353.487 578.933C353.467 579.617 353.244 580.279 352.848 580.836C352.451 581.392 351.898 581.819 351.258 582.061C350.619 582.303 349.922 582.35 349.256 582.195C348.59 582.041 347.985 581.693 347.517 581.194C347.049 580.695 346.74 580.069 346.628 579.394C346.517 578.72 346.608 578.027 346.89 577.405C347.173 576.782 347.634 576.257 348.215 575.897C348.796 575.536 349.471 575.357 350.154 575.38C350.606 575.394 351.051 575.497 351.464 575.683C351.877 575.869 352.248 576.135 352.558 576.465C352.868 576.795 353.109 577.183 353.269 577.606C353.428 578.03 353.502 578.481 353.487 578.933Z" fill="#41474E"/>
<path d="M344.526 589.88C344.505 590.562 344.282 591.221 343.885 591.776C343.489 592.331 342.937 592.755 342.299 592.996C341.661 593.237 340.966 593.283 340.302 593.129C339.638 592.975 339.034 592.627 338.568 592.13C338.101 591.632 337.793 591.008 337.681 590.335C337.57 589.663 337.66 588.972 337.941 588.351C338.222 587.73 338.681 587.206 339.26 586.845C339.839 586.485 340.512 586.305 341.193 586.327C342.106 586.356 342.97 586.747 343.595 587.413C344.22 588.08 344.555 588.967 344.526 589.88Z" fill="#41474E"/>
<path d="M336.467 600C336.446 600.683 336.224 601.345 335.827 601.902C335.43 602.459 334.877 602.886 334.238 603.128C333.598 603.37 332.901 603.417 332.235 603.262C331.569 603.108 330.964 602.759 330.496 602.261C330.028 601.762 329.719 601.136 329.608 600.461C329.496 599.787 329.587 599.094 329.87 598.471C330.152 597.849 330.613 597.324 331.194 596.964C331.775 596.603 332.45 596.423 333.133 596.447C334.045 596.48 334.907 596.872 335.531 597.537C336.156 598.203 336.492 599.088 336.467 600Z" fill="#41474E"/>
<path d="M328.367 610.967C328.347 611.65 328.124 612.312 327.727 612.869C327.331 613.426 326.778 613.852 326.138 614.094C325.499 614.336 324.802 614.383 324.136 614.229C323.47 614.074 322.864 613.726 322.397 613.227C321.929 612.729 321.62 612.102 321.508 611.428C321.397 610.753 321.488 610.061 321.77 609.438C322.053 608.815 322.514 608.291 323.095 607.93C323.676 607.57 324.35 607.39 325.034 607.413C325.947 607.443 326.811 607.834 327.436 608.5C328.061 609.166 328.396 610.054 328.367 610.967Z" fill="#41474E"/>
<path d="M320.287 621.507C320.269 622.104 320.075 622.682 319.729 623.169C319.383 623.655 318.901 624.029 318.343 624.241C317.785 624.454 317.176 624.496 316.594 624.363C316.012 624.229 315.482 623.926 315.072 623.492C314.662 623.058 314.39 622.512 314.29 621.923C314.191 621.334 314.268 620.729 314.512 620.184C314.756 619.639 315.156 619.179 315.662 618.861C316.168 618.544 316.756 618.383 317.353 618.4C318.154 618.424 318.912 618.765 319.462 619.347C320.012 619.93 320.308 620.706 320.287 621.507Z" fill="#41474E"/>
<path d="M313.047 632.507C313.029 633.104 312.835 633.683 312.488 634.17C312.141 634.657 311.658 635.03 311.099 635.242C310.54 635.454 309.931 635.495 309.348 635.361C308.766 635.227 308.237 634.922 307.827 634.487C307.418 634.051 307.147 633.504 307.049 632.914C306.951 632.325 307.03 631.719 307.276 631.174C307.522 630.63 307.924 630.17 308.432 629.854C308.939 629.539 309.529 629.38 310.127 629.4C310.523 629.41 310.913 629.499 311.275 629.661C311.637 629.823 311.963 630.055 312.234 630.344C312.506 630.633 312.718 630.973 312.857 631.344C312.996 631.715 313.061 632.11 313.047 632.507Z" fill="#41474E"/>
<path d="M305.793 644.373C305.775 644.97 305.58 645.548 305.233 646.033C304.886 646.519 304.403 646.891 303.845 647.103C303.287 647.314 302.678 647.356 302.097 647.222C301.515 647.088 300.986 646.784 300.577 646.35C300.168 645.915 299.896 645.369 299.797 644.781C299.698 644.192 299.775 643.587 300.019 643.043C300.264 642.498 300.664 642.038 301.17 641.721C301.675 641.404 302.263 641.243 302.86 641.26C303.257 641.271 303.648 641.361 304.011 641.523C304.374 641.686 304.7 641.919 304.973 642.208C305.245 642.497 305.458 642.837 305.599 643.209C305.74 643.58 305.806 643.976 305.793 644.373Z" fill="#41474E"/>
<path d="M299.42 655.393C299.404 655.991 299.211 656.57 298.865 657.058C298.519 657.546 298.037 657.92 297.478 658.133C296.92 658.346 296.311 658.389 295.728 658.256C295.145 658.123 294.615 657.82 294.205 657.385C293.795 656.95 293.522 656.404 293.423 655.814C293.323 655.225 293.401 654.619 293.646 654.074C293.891 653.529 294.293 653.068 294.799 652.751C295.306 652.435 295.896 652.275 296.493 652.293C296.889 652.304 297.279 652.394 297.64 652.555C298.001 652.717 298.327 652.949 298.599 653.237C298.871 653.525 299.083 653.863 299.224 654.233C299.365 654.603 299.431 654.998 299.42 655.393Z" fill="#41474E"/>
<path d="M293.027 667.287C293.01 667.884 292.815 668.463 292.469 668.949C292.123 669.436 291.64 669.809 291.081 670.022C290.523 670.234 289.914 670.276 289.332 670.142C288.749 670.008 288.22 669.704 287.81 669.269C287.4 668.835 287.129 668.288 287.03 667.699C286.931 667.109 287.009 666.504 287.254 665.959C287.499 665.414 287.901 664.955 288.407 664.638C288.914 664.321 289.503 664.162 290.1 664.18C290.9 664.206 291.656 664.548 292.204 665.13C292.753 665.712 293.049 666.487 293.027 667.287Z" fill="#41474E"/>
<path d="M285.76 679.147C285.741 679.742 285.546 680.319 285.2 680.804C284.853 681.289 284.371 681.66 283.813 681.871C283.256 682.081 282.649 682.122 282.068 681.988C281.488 681.853 280.96 681.55 280.552 681.116C280.144 680.682 279.874 680.136 279.776 679.548C279.677 678.961 279.756 678.357 280 677.814C280.245 677.271 280.646 676.812 281.151 676.496C281.656 676.181 282.244 676.022 282.84 676.04C283.235 676.052 283.625 676.142 283.986 676.305C284.347 676.467 284.672 676.7 284.943 676.988C285.215 677.277 285.426 677.616 285.566 677.986C285.706 678.357 285.772 678.751 285.76 679.147Z" fill="#41474E"/>
<path d="M279.367 691.033C279.351 691.631 279.158 692.21 278.812 692.698C278.467 693.186 277.984 693.56 277.426 693.773C276.867 693.986 276.258 694.029 275.675 693.896C275.093 693.763 274.563 693.46 274.152 693.025C273.742 692.591 273.47 692.044 273.37 691.454C273.271 690.865 273.348 690.259 273.594 689.714C273.839 689.169 274.24 688.709 274.747 688.392C275.253 688.075 275.843 687.915 276.44 687.933C276.836 687.945 277.226 688.034 277.587 688.196C277.948 688.357 278.274 688.589 278.546 688.877C278.818 689.165 279.03 689.503 279.171 689.873C279.312 690.243 279.379 690.638 279.367 691.033Z" fill="#41474E"/>
<path d="M272.1 703.333C272.084 703.844 271.917 704.339 271.62 704.755C271.323 705.171 270.909 705.49 270.431 705.671C269.953 705.852 269.432 705.888 268.934 705.773C268.436 705.658 267.983 705.399 267.632 705.026C267.281 704.654 267.049 704.187 266.964 703.683C266.879 703.179 266.945 702.661 267.154 702.194C267.363 701.728 267.706 701.334 268.139 701.062C268.572 700.79 269.075 700.652 269.586 700.667C270.273 700.688 270.924 700.98 271.395 701.48C271.866 701.98 272.12 702.647 272.1 703.333Z" fill="#41474E"/>
<path d="M264.814 716.06C264.798 716.571 264.631 717.066 264.334 717.482C264.037 717.898 263.623 718.217 263.145 718.398C262.667 718.579 262.146 718.614 261.648 718.5C261.15 718.385 260.697 718.125 260.346 717.753C259.995 717.381 259.763 716.914 259.678 716.409C259.593 715.905 259.659 715.387 259.868 714.921C260.077 714.454 260.42 714.06 260.853 713.789C261.286 713.517 261.789 713.379 262.3 713.393C262.987 713.414 263.637 713.707 264.109 714.207C264.58 714.707 264.833 715.373 264.814 716.06Z" fill="#41474E"/>
<path d="M257.527 728.78C257.511 729.291 257.343 729.786 257.046 730.202C256.749 730.619 256.335 730.937 255.856 731.118C255.378 731.299 254.856 731.334 254.358 731.219C253.86 731.104 253.407 730.843 253.056 730.47C252.706 730.098 252.474 729.63 252.39 729.125C252.306 728.621 252.373 728.102 252.583 727.636C252.793 727.17 253.137 726.776 253.57 726.505C254.004 726.234 254.509 726.098 255.02 726.113C255.36 726.124 255.694 726.201 256.004 726.34C256.314 726.48 256.593 726.679 256.826 726.927C257.059 727.175 257.24 727.466 257.361 727.784C257.481 728.102 257.537 728.44 257.527 728.78Z" fill="#41474E"/>
<path d="M250.24 741.507C250.224 742.018 250.057 742.513 249.76 742.929C249.462 743.345 249.048 743.664 248.57 743.845C248.092 744.026 247.57 744.061 247.072 743.946C246.574 743.83 246.121 743.57 245.77 743.197C245.42 742.824 245.188 742.356 245.104 741.852C245.019 741.347 245.087 740.829 245.297 740.363C245.507 739.896 245.851 739.503 246.284 739.232C246.718 738.961 247.223 738.824 247.734 738.84C248.419 738.863 249.068 739.156 249.538 739.656C250.008 740.155 250.26 740.821 250.24 741.507Z" fill="#41474E"/>
<path d="M242.073 755.067C242.057 755.578 241.89 756.072 241.593 756.488C241.296 756.905 240.883 757.223 240.405 757.404C239.927 757.586 239.406 757.621 238.907 757.506C238.409 757.392 237.956 757.132 237.606 756.76C237.255 756.388 237.023 755.92 236.937 755.416C236.852 754.912 236.919 754.394 237.128 753.928C237.337 753.461 237.679 753.067 238.112 752.795C238.545 752.523 239.049 752.386 239.56 752.4C240.247 752.421 240.897 752.714 241.368 753.214C241.84 753.713 242.093 754.38 242.073 755.067Z" fill="#41474E"/>
<path d="M233.894 768.627C233.878 769.138 233.71 769.633 233.413 770.049C233.116 770.465 232.702 770.784 232.223 770.965C231.745 771.146 231.224 771.181 230.725 771.066C230.227 770.95 229.774 770.69 229.424 770.317C229.073 769.944 228.841 769.476 228.757 768.972C228.673 768.467 228.74 767.949 228.95 767.483C229.16 767.016 229.504 766.623 229.938 766.352C230.371 766.081 230.876 765.944 231.387 765.96C232.073 765.983 232.721 766.276 233.191 766.776C233.661 767.275 233.914 767.941 233.894 768.627Z" fill="#41474E"/>
<path d="M224 782.567C223.988 782.994 223.849 783.408 223.602 783.756C223.354 784.105 223.009 784.372 222.609 784.524C222.21 784.676 221.774 784.707 221.358 784.611C220.941 784.516 220.562 784.299 220.269 783.988C219.976 783.677 219.782 783.286 219.711 782.864C219.64 782.443 219.695 782.01 219.871 781.62C220.046 781.23 220.333 780.901 220.695 780.674C221.058 780.448 221.479 780.334 221.906 780.347C222.478 780.364 223.02 780.608 223.412 781.024C223.805 781.44 224.016 781.995 224 782.567Z" fill="#41474E"/>
<path d="M214.927 796.967C214.913 797.392 214.774 797.804 214.527 798.15C214.28 798.496 213.936 798.762 213.538 798.913C213.14 799.064 212.706 799.093 212.291 798.998C211.877 798.902 211.5 798.686 211.208 798.376C210.916 798.067 210.722 797.678 210.651 797.258C210.58 796.839 210.635 796.407 210.809 796.019C210.983 795.631 211.268 795.303 211.628 795.076C211.989 794.85 212.408 794.735 212.833 794.747C213.117 794.754 213.397 794.817 213.656 794.932C213.915 795.048 214.148 795.214 214.343 795.42C214.538 795.626 214.69 795.869 214.79 796.135C214.89 796.4 214.937 796.683 214.927 796.967Z" fill="#41474E"/>
<path d="M205 811.333C204.985 811.759 204.845 812.17 204.596 812.516C204.348 812.861 204.003 813.125 203.605 813.275C203.206 813.425 202.773 813.453 202.358 813.356C201.944 813.259 201.567 813.042 201.276 812.731C200.985 812.421 200.793 812.031 200.723 811.612C200.654 811.192 200.71 810.761 200.885 810.373C201.06 809.985 201.346 809.658 201.707 809.432C202.068 809.207 202.488 809.094 202.913 809.107C203.196 809.115 203.475 809.18 203.734 809.296C203.992 809.413 204.225 809.58 204.419 809.787C204.613 809.993 204.764 810.237 204.864 810.502C204.963 810.767 205.009 811.05 205 811.333Z" fill="#41474E"/>
<path d="M194.193 826.54C194.181 826.966 194.043 827.379 193.797 827.726C193.55 828.073 193.205 828.34 192.807 828.491C192.409 828.643 191.975 828.673 191.56 828.578C191.144 828.483 190.767 828.266 190.474 827.956C190.182 827.646 189.988 827.256 189.918 826.836C189.847 826.416 189.902 825.984 190.077 825.596C190.252 825.207 190.538 824.879 190.899 824.653C191.261 824.427 191.681 824.314 192.107 824.327C192.676 824.348 193.213 824.591 193.604 825.006C193.994 825.42 194.206 825.971 194.193 826.54Z" fill="#41474E"/>
<path d="M182.52 841.727C182.51 842.154 182.372 842.569 182.125 842.919C181.878 843.268 181.533 843.537 181.133 843.689C180.733 843.842 180.297 843.873 179.88 843.778C179.463 843.682 179.083 843.465 178.79 843.154C178.496 842.842 178.301 842.451 178.231 842.029C178.16 841.607 178.216 841.173 178.393 840.783C178.569 840.393 178.857 840.064 179.22 839.838C179.584 839.612 180.006 839.499 180.434 839.513C181.003 839.532 181.542 839.776 181.933 840.19C182.324 840.605 182.535 841.157 182.52 841.727Z" fill="#41474E"/>
<path d="M169.96 857.747C169.948 858.174 169.809 858.588 169.562 858.936C169.314 859.285 168.969 859.552 168.569 859.704C168.17 859.856 167.734 859.887 167.318 859.791C166.901 859.695 166.522 859.479 166.229 859.168C165.936 858.857 165.741 858.466 165.671 858.044C165.6 857.623 165.655 857.19 165.831 856.8C166.006 856.41 166.293 856.081 166.655 855.854C167.018 855.628 167.439 855.514 167.866 855.527C168.15 855.535 168.429 855.598 168.688 855.714C168.946 855.83 169.18 855.996 169.374 856.202C169.569 856.408 169.721 856.651 169.821 856.916C169.922 857.181 169.969 857.463 169.96 857.747Z" fill="#41474E"/>
<path d="M155.687 873.287C155.676 873.628 155.565 873.958 155.366 874.236C155.168 874.514 154.891 874.727 154.572 874.848C154.253 874.968 153.905 874.992 153.572 874.915C153.239 874.838 152.937 874.664 152.703 874.415C152.469 874.166 152.314 873.854 152.258 873.517C152.202 873.18 152.247 872.834 152.387 872.523C152.527 872.212 152.756 871.949 153.046 871.768C153.336 871.587 153.672 871.496 154.014 871.507C154.471 871.522 154.904 871.718 155.217 872.052C155.531 872.385 155.699 872.829 155.687 873.287Z" fill="#41474E"/>
<path d="M141.373 890.107C141.364 890.447 141.254 890.776 141.057 891.054C140.86 891.331 140.586 891.544 140.268 891.666C139.95 891.787 139.604 891.812 139.272 891.736C138.941 891.661 138.639 891.489 138.405 891.242C138.171 890.995 138.016 890.684 137.958 890.349C137.901 890.014 137.944 889.669 138.083 889.359C138.221 889.048 138.449 888.785 138.737 888.604C139.025 888.423 139.36 888.331 139.7 888.34C139.926 888.345 140.149 888.395 140.355 888.487C140.562 888.579 140.749 888.71 140.904 888.875C141.06 889.039 141.181 889.232 141.262 889.444C141.342 889.655 141.38 889.881 141.373 890.107Z" fill="#41474E"/>
<path d="M125.334 906.887C125.324 907.228 125.214 907.559 125.016 907.838C124.818 908.117 124.542 908.331 124.223 908.452C123.904 908.574 123.555 908.599 123.222 908.522C122.889 908.446 122.586 908.273 122.352 908.024C122.117 907.776 121.962 907.463 121.905 907.126C121.848 906.789 121.893 906.443 122.033 906.131C122.173 905.82 122.402 905.556 122.692 905.375C122.982 905.194 123.319 905.103 123.66 905.113C123.887 905.119 124.11 905.17 124.317 905.263C124.523 905.355 124.71 905.487 124.865 905.652C125.021 905.817 125.142 906.011 125.223 906.223C125.303 906.435 125.341 906.66 125.334 906.887Z" fill="#41474E"/>
<path d="M400.52 518.28C400.513 518.933 400.313 519.57 399.944 520.109C399.575 520.648 399.055 521.066 398.449 521.309C397.842 521.552 397.178 521.61 396.538 521.475C395.899 521.34 395.315 521.019 394.858 520.551C394.402 520.084 394.095 519.491 393.975 518.849C393.856 518.207 393.93 517.544 394.188 516.944C394.446 516.343 394.876 515.833 395.424 515.478C395.972 515.122 396.613 514.937 397.266 514.947C398.139 514.959 398.972 515.317 399.582 515.941C400.191 516.566 400.529 517.407 400.52 518.28Z" fill="#41474E"/>
<path d="M392 528.373C391.999 529.036 391.802 529.683 391.432 530.233C391.062 530.783 390.537 531.21 389.923 531.46C389.309 531.71 388.635 531.771 387.986 531.636C387.337 531.5 386.744 531.175 386.281 530.701C385.818 530.226 385.507 529.625 385.388 528.973C385.268 528.321 385.346 527.649 385.61 527.041C385.875 526.434 386.315 525.919 386.873 525.562C387.432 525.206 388.084 525.024 388.746 525.04C389.616 525.061 390.444 525.421 391.052 526.044C391.66 526.667 392 527.503 392 528.373Z" fill="#41474E"/>
<path d="M408.814 509.113C408.807 509.767 408.606 510.404 408.237 510.943C407.868 511.482 407.348 511.9 406.741 512.143C406.134 512.386 405.469 512.443 404.83 512.308C404.191 512.172 403.606 511.85 403.15 511.382C402.694 510.914 402.387 510.321 402.269 509.678C402.15 509.036 402.225 508.372 402.484 507.772C402.743 507.172 403.174 506.662 403.723 506.308C404.272 505.953 404.914 505.769 405.567 505.78C406.436 505.803 407.262 506.164 407.868 506.786C408.475 507.409 408.814 508.244 408.814 509.113Z" fill="#41474E"/>
<path d="M416.2 498.527C416.2 499.189 416.002 499.837 415.632 500.387C415.262 500.936 414.737 501.363 414.123 501.613C413.509 501.863 412.835 501.924 412.186 501.789C411.538 501.654 410.944 501.328 410.481 500.854C410.018 500.38 409.707 499.778 409.588 499.127C409.468 498.475 409.546 497.802 409.81 497.195C410.075 496.587 410.515 496.072 411.073 495.716C411.632 495.359 412.284 495.177 412.947 495.193C413.817 495.214 414.644 495.575 415.252 496.197C415.86 496.82 416.2 497.656 416.2 498.527Z" fill="#41474E"/>
<path d="M423.1 488.093C423.1 488.756 422.902 489.404 422.532 489.954C422.162 490.504 421.636 490.931 421.022 491.18C420.408 491.43 419.733 491.491 419.084 491.355C418.435 491.219 417.842 490.893 417.379 490.418C416.917 489.943 416.606 489.341 416.487 488.689C416.369 488.037 416.447 487.364 416.713 486.757C416.979 486.149 417.419 485.635 417.979 485.279C418.538 484.923 419.191 484.743 419.854 484.76C420.723 484.783 421.548 485.144 422.155 485.766C422.761 486.389 423.101 487.224 423.1 488.093Z" fill="#41474E"/>
<path d="M382.954 537.84C382.954 538.502 382.756 539.15 382.387 539.699C382.017 540.249 381.492 540.676 380.879 540.926C380.265 541.176 379.591 541.238 378.943 541.103C378.294 540.968 377.7 540.643 377.237 540.17C376.774 539.696 376.463 539.096 376.342 538.444C376.222 537.793 376.299 537.12 376.562 536.513C376.826 535.905 377.265 535.39 377.822 535.032C378.38 534.675 379.032 534.492 379.694 534.507C380.127 534.511 380.555 534.601 380.953 534.771C381.351 534.941 381.712 535.188 382.015 535.497C382.318 535.807 382.557 536.173 382.718 536.575C382.879 536.977 382.959 537.407 382.954 537.84Z" fill="#41474E"/>
<path d="M418.901 534.327C418.619 534.913 418.169 535.403 417.609 535.735C417.049 536.066 416.403 536.224 415.753 536.189C415.104 536.154 414.479 535.927 413.958 535.536C413.437 535.146 413.043 534.61 412.827 533.997C412.61 533.383 412.58 532.719 412.74 532.088C412.901 531.457 413.245 530.888 413.728 530.453C414.212 530.017 414.814 529.735 415.458 529.641C416.102 529.548 416.76 529.647 417.347 529.927C417.739 530.113 418.089 530.375 418.38 530.697C418.67 531.019 418.893 531.395 419.038 531.804C419.182 532.213 419.244 532.646 419.221 533.079C419.197 533.512 419.088 533.936 418.901 534.327Z" fill="#41474E"/>
<path d="M407.534 542.14C407.252 542.73 406.803 543.223 406.241 543.556C405.68 543.89 405.032 544.05 404.379 544.015C403.727 543.98 403.1 543.753 402.577 543.361C402.054 542.97 401.659 542.432 401.442 541.816C401.225 541.199 401.196 540.533 401.358 539.9C401.521 539.267 401.867 538.697 402.354 538.261C402.84 537.825 403.445 537.544 404.092 537.452C404.739 537.361 405.398 537.463 405.987 537.747C406.377 537.934 406.726 538.196 407.015 538.517C407.304 538.839 407.527 539.215 407.67 539.623C407.814 540.031 407.876 540.463 407.852 540.895C407.829 541.327 407.721 541.75 407.534 542.14Z" fill="#41474E"/>
<path d="M429.154 527.733C428.873 528.333 428.421 528.836 427.854 529.178C427.286 529.52 426.63 529.685 425.969 529.652C425.307 529.62 424.67 529.391 424.14 528.995C423.609 528.599 423.208 528.053 422.988 527.429C422.769 526.804 422.74 526.128 422.906 525.487C423.073 524.846 423.426 524.269 423.922 523.829C424.417 523.39 425.032 523.108 425.689 523.02C426.345 522.931 427.013 523.041 427.607 523.333C428.389 523.719 428.989 524.395 429.278 525.218C429.567 526.04 429.522 526.943 429.154 527.733Z" fill="#41474E"/>
<path d="M443.193 523.387C442.912 523.976 442.462 524.469 441.9 524.803C441.339 525.137 440.691 525.296 440.039 525.262C439.386 525.227 438.759 524.999 438.236 524.608C437.713 524.216 437.318 523.678 437.101 523.062C436.884 522.446 436.855 521.779 437.018 521.147C437.18 520.514 437.526 519.943 438.013 519.508C438.5 519.072 439.105 518.791 439.751 518.699C440.398 518.607 441.058 518.71 441.646 518.993C442.426 519.379 443.025 520.054 443.314 520.875C443.603 521.696 443.56 522.597 443.193 523.387Z" fill="#41474E"/>
<path d="M451.754 516.82C451.472 517.409 451.021 517.901 450.46 518.233C449.898 518.566 449.25 518.725 448.598 518.689C447.946 518.654 447.32 518.426 446.797 518.034C446.275 517.642 445.881 517.105 445.664 516.489C445.448 515.873 445.419 515.206 445.581 514.574C445.743 513.942 446.09 513.372 446.576 512.936C447.062 512.501 447.667 512.219 448.313 512.127C448.96 512.035 449.619 512.137 450.207 512.42C450.598 512.607 450.948 512.869 451.237 513.191C451.527 513.514 451.75 513.89 451.893 514.299C452.037 514.708 452.099 515.141 452.075 515.573C452.051 516.006 451.942 516.43 451.754 516.82Z" fill="#41474E"/>
<path d="M394.9 549.673C394.62 550.274 394.168 550.777 393.601 551.119C393.035 551.462 392.379 551.627 391.717 551.595C391.056 551.563 390.419 551.335 389.888 550.94C389.357 550.544 388.955 550 388.735 549.376C388.515 548.751 388.485 548.075 388.65 547.434C388.816 546.793 389.168 546.215 389.663 545.775C390.158 545.335 390.772 545.052 391.428 544.963C392.084 544.874 392.752 544.982 393.347 545.273C393.739 545.459 394.09 545.72 394.381 546.042C394.671 546.364 394.895 546.741 395.039 547.15C395.184 547.559 395.246 547.992 395.222 548.426C395.198 548.859 395.088 549.283 394.9 549.673Z" fill="#41474E"/>
</svg>
